<svg width="2410" height="666" viewBox="0 0 2410 666" fill="none" xmlns="http://www.w3.org/2000/svg">
<path d="M199.81 0.019104C201.081 0.0127997 202.352 0.00649536 203.661 0C205.03 0.00357869 206.398 0.00768037 207.766 0.0122681C209.183 0.0109191 210.601 0.00897672 212.019 0.00646972C214.977 0.00353297 217.936 0.00777176 220.895 0.0171509C224.686 0.0285866 228.478 0.021951 232.27 0.0100059C235.192 0.00278369 238.114 0.00507622 241.036 0.0102615C242.434 0.0115949 243.833 0.00996141 245.232 0.00530243C247.182 0.0002269 249.133 0.0093337 251.083 0.019104C252.192 0.0206952 253.301 0.0222864 254.444 0.0239258C257.188 0.277893 257.188 0.277893 260.188 2.27789C261.765 2.49446 261.765 2.49446 263.375 2.71539C267.704 3.35411 271.14 4.64467 275.188 6.27789C275.188 6.93789 275.188 7.59789 275.188 8.27789C275.951 8.56664 276.714 8.85539 277.5 9.15289C280.188 10.2779 280.188 10.2779 283.188 12.2779C283.188 12.9379 283.188 13.5979 283.188 14.2779C284.073 14.6665 284.073 14.6665 284.977 15.063C292.235 19.0515 297.108 27.8742 300.188 35.2779C301.037 39.4189 301.141 43.3723 301.062 47.5904C301.052 48.7103 301.042 49.8303 301.032 50.9842C300.524 65.3962 295.852 78.7829 287.188 90.2779C285.261 94.2054 283.957 98.0756 282.812 102.278C281.617 106.448 279.975 109.37 277.312 112.762C275.817 114.777 275.085 116.945 274.188 119.278C273.548 120.227 272.909 121.175 272.25 122.153C270.085 125.433 268.688 128.651 267.188 132.278C265.898 134.967 264.537 137.619 263.188 140.278C262.103 142.444 261.02 144.611 259.938 146.778C259.021 148.611 258.104 150.445 257.188 152.278C256.527 152.278 255.868 152.278 255.188 152.278C255.291 152.938 255.394 153.598 255.5 154.278C255.038 158.716 252.635 161.643 250.188 165.278C249.857 165.938 249.528 166.598 249.188 167.278C248.527 167.278 247.868 167.278 247.188 167.278C247.033 168.111 247.033 168.111 246.875 168.961C246.046 171.756 244.736 173.873 243.188 176.34C241.5 179.039 240.197 181.249 239.188 184.278C239.848 184.278 240.507 184.278 241.188 184.278C241.435 183.721 241.683 183.164 241.938 182.59C244.281 178.255 247.533 174.567 251.188 171.278C251.848 171.278 252.507 171.278 253.188 171.278C253.188 170.618 253.188 169.958 253.188 169.278C254.809 167.567 256.483 165.905 258.188 164.278C259.27 163.133 259.27 163.133 260.375 161.965C262.188 160.278 262.188 160.278 264.188 160.278C264.188 159.618 264.188 158.958 264.188 158.278C266.062 156.153 266.062 156.153 268.188 154.278C268.848 154.278 269.507 154.278 270.188 154.278C270.518 153.288 270.847 152.298 271.188 151.278C271.848 151.278 272.507 151.278 273.188 151.278C273.435 150.7 273.683 150.123 273.938 149.528C275.37 146.948 276.972 145.217 279.188 143.278C279.848 143.278 280.507 143.278 281.188 143.278C281.188 142.618 281.188 141.958 281.188 141.278C282.832 139.586 282.832 139.586 285 137.715C285.708 137.095 286.415 136.475 287.145 135.836C289.188 134.278 289.188 134.278 292.188 133.278C292.497 132.639 292.806 131.999 293.125 131.34C294.422 128.823 295.61 128.309 298.188 127.278C298.188 126.618 298.188 125.958 298.188 125.278C299.578 124.129 299.578 124.129 301.438 122.903C303.722 121.348 305.529 119.936 307.5 117.965C308.057 117.409 308.614 116.852 309.188 116.278C309.848 116.278 310.507 116.278 311.188 116.278C311.518 115.288 311.847 114.298 312.188 113.278C312.848 113.278 313.507 113.278 314.188 113.278C314.518 112.288 314.847 111.298 315.188 110.278C316.796 108.347 318.293 107.216 320.473 105.946C324.268 103.614 327.562 100.767 330.98 97.9224C333.188 96.2779 333.188 96.2779 335.188 96.2779C335.188 95.6179 335.188 94.9579 335.188 94.2779C340.235 89.5989 345.931 85.7187 351.691 81.981C358.013 77.6674 364.077 72.8703 369.953 67.9732C372.188 66.2779 372.188 66.2779 374.188 66.2779C374.188 65.6179 374.188 64.9579 374.188 64.2779C376.023 62.9459 376.023 62.9459 378.562 61.4654C379.479 60.9304 380.396 60.3955 381.34 59.8443C383.902 58.4351 386.483 57.1538 389.125 55.9029C392.935 54.0545 396.186 51.8936 399.562 49.3404C407.251 43.582 415.702 39.7123 424.633 36.274C427.47 35.1678 430.262 33.9743 433.062 32.7779C445.025 27.7805 456.64 24.0795 469.625 23.5904C470.586 23.552 471.546 23.5137 472.536 23.4742C488.956 22.9241 504.511 22.4437 517.188 34.2779C521.569 38.6823 524.986 42.4359 527.188 48.2779C527.514 48.8166 527.841 49.3554 528.177 49.9105C531.915 56.2158 531.839 62.2723 531.75 69.4654C531.743 70.6763 531.735 71.8872 531.728 73.1348C531.562 80.7091 530.843 86.3999 527.492 93.2154C525.513 97.8613 524.898 102.659 524.177 107.634C523.647 111.168 523.205 113.252 521.188 116.278C521.064 117.309 520.94 118.34 520.812 119.403C520.161 123.442 518.903 126.393 517.176 130.055C515.835 133.071 515.003 136.084 514.188 139.278C513.527 139.278 512.868 139.278 512.188 139.278C512.105 140.268 512.023 141.258 511.938 142.278C511.42 145.8 510.194 148.599 508.508 151.747C506.704 155.205 505.077 158.739 503.438 162.278C503.12 162.962 502.802 163.646 502.474 164.35C501.711 165.992 500.949 167.635 500.188 169.278C499.527 169.278 498.868 169.278 498.188 169.278C498.041 170.148 498.041 170.148 497.891 171.036C496.863 176.406 495.285 179.722 492.188 184.278C491.103 187.002 490.152 189.756 489.199 192.528C488.037 195.687 486.565 198.576 485.004 201.551C483.968 203.742 483.487 205.88 483.188 208.278C482.527 208.278 481.868 208.278 481.188 208.278C480.925 208.991 480.662 209.704 480.391 210.438C479.136 213.399 477.623 215.978 475.938 218.715C472.007 225.332 469.065 232.154 466.188 239.278C465.527 239.278 464.868 239.278 464.188 239.278C462.994 242.216 461.849 245.169 460.742 248.141C457.081 257.885 452.954 267.2 448.144 276.429C446.455 279.694 444.825 282.987 443.188 286.278C441.521 289.611 439.854 292.945 438.188 296.278C437.527 296.278 436.868 296.278 436.188 296.278C436.064 296.876 435.94 297.474 435.812 298.09C435.188 300.278 435.188 300.278 433.188 303.278C436.043 301.215 438.079 299.442 440.035 296.489C442.249 293.187 444.66 290.427 447.375 287.528C448.347 286.487 449.318 285.445 450.289 284.403C450.773 283.885 451.257 283.366 451.755 282.833C453.137 281.332 454.491 279.812 455.836 278.278C456.633 277.37 457.429 276.463 458.25 275.528C458.963 274.708 459.676 273.888 460.41 273.044C462.188 271.278 462.188 271.278 464.188 271.278C464.438 270.699 464.688 270.12 464.945 269.524C466.353 266.979 467.96 265.343 470.062 263.34C472.428 261.048 474.511 258.869 476.562 256.278C477.099 255.618 477.635 254.958 478.188 254.278C478.848 254.278 479.507 254.278 480.188 254.278C480.518 253.288 480.847 252.298 481.188 251.278C482.831 249.589 484.502 247.925 486.188 246.278C486.992 245.267 487.796 244.257 488.625 243.215C491.254 240.201 493.869 238.466 497.188 236.278C498.537 234.624 499.869 232.956 501.188 231.278C502.928 229.73 504.717 228.254 506.512 226.77C508.692 224.828 510.376 222.559 512.188 220.278C512.848 220.278 513.507 220.278 514.188 220.278C514.595 219.396 514.595 219.396 515.012 218.497C517.825 213.188 522.28 208.686 527.188 205.278C527.848 205.278 528.507 205.278 529.188 205.278C529.435 204.691 529.683 204.105 529.938 203.501C531.371 200.951 532.934 199.567 535.188 197.715C537.745 195.604 539.321 194.078 541.188 191.278C541.848 191.278 542.507 191.278 543.188 191.278C543.188 190.618 543.188 189.958 543.188 189.278C544.691 187.797 544.691 187.797 546.75 186.09C550.297 183.091 553.553 179.938 556.742 176.563C558.188 175.278 558.188 175.278 560.188 175.278C560.518 174.288 560.847 173.298 561.188 172.278C561.848 172.278 562.507 172.278 563.188 172.278C563.518 171.288 563.847 170.298 564.188 169.278C568.645 165.278 568.645 165.278 571.188 165.278C571.38 164.738 571.572 164.198 571.77 163.641C573.845 160.181 576.778 158.005 579.875 155.465C585.655 150.639 585.655 150.639 591.062 145.403C593.78 142.598 596.664 140.297 599.824 138.008C602.228 136.248 604.58 134.429 606.929 132.598C611.913 128.718 616.926 124.983 622.285 121.629C624.282 120.293 624.282 120.293 626.09 118.352C632.605 111.91 641.395 107.472 649.297 102.942C652.077 101.342 654.822 99.6938 657.562 98.0279C667.141 92.2779 667.141 92.2779 671.188 92.2779C671.188 91.6179 671.188 90.9579 671.188 90.2779C672.837 90.2779 674.487 90.2779 676.188 90.2779C676.188 89.6179 676.188 88.9579 676.188 88.2779C680.148 87.2879 684.108 86.2979 688.188 85.2779C688.188 84.6179 688.188 83.9579 688.188 83.2779C696.595 80.7607 704.914 78.6009 713.52 76.8912C716.095 76.5477 716.095 76.5477 717.188 75.2779C718.661 75.0702 720.142 74.9107 721.625 74.7779C725.032 74.4864 725.032 74.4864 728.188 73.2779C730.697 73.1668 733.178 73.1138 735.688 73.1099C736.438 73.1066 737.188 73.1033 737.961 73.0998C739.555 73.0948 741.149 73.0924 742.743 73.0926C745.15 73.0904 747.557 73.0723 749.965 73.0533C761.461 73.0078 771.166 73.6967 781.5 79.1529C782.176 79.4919 782.852 79.8309 783.549 80.1802C787.443 82.1787 790.95 84.2844 794.188 87.2779C794.188 87.9379 794.188 88.5979 794.188 89.2779C795.116 89.711 795.116 89.711 796.062 90.1529C799.386 91.9125 800.536 93.7352 801.812 97.1529C802.203 98.17 802.203 98.17 802.602 99.2076C803.188 101.278 803.188 101.278 803.188 105.278C803.848 105.278 804.507 105.278 805.188 105.278C808.304 114.628 806.337 126.457 804.047 135.77C803.422 138.322 802.872 140.832 802.391 143.411C802.262 144.098 802.134 144.785 802.001 145.492C801.644 147.426 801.289 149.36 800.934 151.294C800.188 154.278 800.188 154.278 798.188 156.278C797.616 158.206 797.616 158.206 797.25 160.403C796.316 164.924 794.939 169.014 793.188 173.278C792.594 174.724 792.594 174.724 791.988 176.2C789.761 181.576 787.495 186.935 785.188 192.278C784.527 192.278 783.868 192.278 783.188 192.278C783.033 193.33 783.033 193.33 782.875 194.403C782.087 197.696 780.749 200.276 779.188 203.278C777.807 206.398 776.482 209.518 775.25 212.7C773.739 216.594 772.248 220.36 770.125 223.965C768.102 227.251 768.102 227.251 766.688 230.903C765.203 234.244 763.455 236.444 761.188 239.278C760.468 240.913 759.754 242.552 759.102 244.215C757.984 246.736 756.589 249.029 755.188 251.403C752.291 256.581 750.976 261.518 749.926 267.333C749.135 270.486 747.957 272.567 746.188 275.278C745.242 277.003 744.304 278.732 743.375 280.465C735.895 294.219 735.895 294.219 732.062 298.84C729.378 302.33 727.849 306.222 726.188 310.278C725.527 310.278 724.868 310.278 724.188 310.278C723.961 310.917 723.734 311.557 723.5 312.215C722.028 315.65 720.256 318.821 718.418 322.071C717.418 323.864 716.481 325.692 715.562 327.528C714.188 330.278 714.188 330.278 712.625 332.84C711.135 335.227 711.135 335.227 710.188 337.778C709.099 340.5 707.845 342.86 706.188 345.278C705.527 345.278 704.868 345.278 704.188 345.278C704.105 346 704.023 346.722 703.938 347.465C703.033 350.856 701.405 352.59 699.188 355.278C698.491 356.932 697.827 358.6 697.188 360.278C695.877 362.628 694.544 364.955 693.188 367.278C690.558 371.874 688.133 376.349 686.188 381.278C685.535 382.452 684.867 383.618 684.188 384.778C682.57 387.542 681.339 390.285 680.188 393.278C679.188 395.278 678.188 397.278 677.188 399.278C675.5 402.935 673.841 406.605 672.188 410.278C671.527 410.278 670.868 410.278 670.188 410.278C670.188 411.928 670.188 413.578 670.188 415.278C669.197 415.773 669.197 415.773 668.188 416.278C666.186 420.531 664.188 425.545 664.188 430.278C670.323 432.435 675.943 432.562 682.411 432.537C683.523 432.54 684.635 432.544 685.78 432.547C689.46 432.556 693.14 432.55 696.82 432.544C699.412 432.545 702.004 432.547 704.596 432.549C710.048 432.552 715.5 432.548 720.953 432.539C726.472 432.529 731.992 432.529 737.511 432.539C794.996 435.525 794.996 435.525 851.188 427.278C852.831 427.126 854.478 427.004 856.125 426.903C861.429 426.467 866.337 425.341 871.469 423.965C874.188 423.278 874.188 423.278 877.938 422.778C881.357 422.252 884.13 421.189 887.32 419.911C889.667 419.115 891.731 419.048 894.188 419.278C894.188 418.618 894.188 417.958 894.188 417.278C894.951 417.134 895.714 416.989 896.5 416.84C900.086 414.755 900.337 412.956 901.457 409.086C901.979 407.08 902.497 405.072 903.012 403.063C906.151 391.287 910.812 381.039 918.188 371.278C918.518 370.288 918.847 369.298 919.188 368.278C919.848 368.278 920.507 368.278 921.188 368.278C921.613 367.402 921.613 367.402 922.047 366.508C923.473 363.719 925.104 361.112 926.789 358.473C927.7 357.043 928.592 355.601 929.461 354.145C932.467 349.298 935.934 345.247 939.938 341.215C940.422 340.726 940.906 340.236 941.405 339.732C944.93 336.278 944.93 336.278 947.188 336.278C947.414 335.7 947.641 335.123 947.875 334.528C949.525 331.699 951.62 330.295 954.188 328.278C954.765 327.52 955.342 326.762 955.938 325.981C958.595 322.788 961.509 320.454 964.812 317.965C965.69 317.284 965.69 317.284 966.586 316.588C970.927 313.278 970.927 313.278 973.188 313.278C973.188 312.618 973.188 311.958 973.188 311.278C976.473 309.35 979.767 307.438 983.062 305.528C983.98 304.989 984.898 304.45 985.844 303.895C991.803 300.454 997.742 297.672 1004.19 295.278C1006.02 294.539 1006.02 294.539 1007.9 293.786C1027.83 286.264 1047.58 282.708 1068.81 282.778C1069.6 282.779 1070.38 282.781 1071.19 282.783C1087.79 282.878 1103.87 284.663 1120.06 288.34C1121.28 288.609 1122.5 288.878 1123.76 289.155C1132.72 291.135 1132.72 291.135 1135.09 291.86C1138.26 292.492 1141.33 292.349 1144.55 292.305C1146.01 292.293 1147.47 292.28 1148.93 292.268C1151.21 292.243 1153.5 292.215 1155.78 292.182C1158 292.152 1160.21 292.134 1162.43 292.118C1163.44 292.098 1163.44 292.098 1164.47 292.077C1171.95 292.038 1179.16 294.056 1185.06 298.778C1186.19 300.278 1186.19 300.278 1186.19 303.278C1187.18 303.608 1188.17 303.938 1189.19 304.278C1193.37 309.849 1192.93 316.645 1192.19 323.278C1191.23 326.232 1189.82 328.649 1188.19 331.278C1187.49 332.71 1186.8 334.148 1186.12 335.59C1185.12 337.715 1184.31 339.161 1182.63 340.821C1180.92 342.329 1180.92 342.329 1180.19 345.278C1179.53 345.278 1178.87 345.278 1178.19 345.278C1178.07 345.864 1177.94 346.45 1177.82 347.055C1177.18 349.321 1176.35 350.879 1175.08 352.852C1174.66 353.516 1174.23 354.179 1173.8 354.863C1173.35 355.557 1172.9 356.25 1172.44 356.965C1171.52 358.402 1170.61 359.839 1169.7 361.278C1169.27 361.968 1168.83 362.657 1168.38 363.368C1165.71 367.65 1163.1 371.971 1161.24 376.676C1158.41 383.658 1154.35 390.031 1150.19 396.278C1149.15 398.258 1148.17 400.258 1147.2 402.274C1146.23 404.191 1145.15 405.963 1144 407.778C1141.88 411.864 1141.65 414.745 1141.19 419.278C1140.53 419.938 1139.87 420.598 1139.19 421.278C1138.68 423.306 1138.68 423.306 1138.62 425.59C1138.56 426.35 1138.5 427.109 1138.43 427.891C1139.41 430.98 1141.06 432.407 1143.7 434.207C1149.27 436.608 1155.68 435.966 1161.64 435.907C1163.19 435.908 1164.74 435.91 1166.28 435.914C1169.53 435.917 1172.78 435.902 1176.04 435.875C1180.09 435.841 1184.15 435.847 1188.21 435.865C1208.83 435.94 1228.89 434.569 1249.32 431.78C1255.93 430.921 1262.56 430.258 1269.19 429.59C1271.03 429.403 1271.03 429.403 1272.91 429.211C1274.92 429.008 1276.92 428.805 1278.93 428.603C1281.22 428.395 1281.22 428.395 1283.19 427.278C1285.85 426.95 1288.51 426.664 1291.19 426.403C1303.46 425.113 1315.73 423.51 1327.6 420.036C1330.55 419.172 1333.52 418.405 1336.5 417.653C1337.44 417.413 1338.39 417.173 1339.36 416.926C1342.29 416.254 1345.22 415.743 1348.19 415.278C1348.19 414.618 1348.19 413.958 1348.19 413.278C1349.84 413.278 1351.49 413.278 1353.19 413.278C1353.52 412.288 1353.85 411.298 1354.19 410.278C1354.85 410.278 1355.51 410.278 1356.19 410.278C1356.15 409.061 1356.11 407.844 1356.06 406.59C1356.06 402.986 1356.7 400.587 1358.19 397.278C1358.48 396.04 1358.76 394.803 1359.06 393.528C1360 389.567 1361.54 386.056 1363.25 382.372C1364.43 379.734 1365.29 377.025 1366.19 374.278C1367.19 371.945 1368.19 369.611 1369.19 367.278C1369.52 366.267 1369.85 365.257 1370.19 364.215C1371.26 361.058 1372.67 358.247 1374.19 355.278C1375.85 351.598 1377.33 347.932 1378.56 344.09C1381.12 336.241 1384.36 328.589 1388.19 321.278C1389.8 318.119 1391.31 314.986 1392.69 311.715C1394 308.702 1395.31 305.974 1397.19 303.278C1397.85 303.278 1398.51 303.278 1399.19 303.278C1399.3 302.695 1399.42 302.113 1399.54 301.512C1400.24 299.113 1401.17 297.549 1402.62 295.528C1403.06 294.914 1403.49 294.301 1403.93 293.669C1404.55 292.98 1404.55 292.98 1405.19 292.278C1405.85 292.278 1406.51 292.278 1407.19 292.278C1407.19 291.288 1407.19 290.298 1407.19 289.278C1416.86 279.822 1426.84 278.049 1439.82 277.948C1445.78 278.026 1449.98 279.246 1455.19 282.278C1455.19 282.938 1455.19 283.598 1455.19 284.278C1455.76 284.546 1456.34 284.814 1456.94 285.09C1461.35 287.417 1464.05 289.686 1466.19 294.278C1466.59 299.464 1466.59 299.464 1465.19 302.278C1464.53 302.278 1463.87 302.278 1463.19 302.278C1463.28 303.351 1463.28 303.351 1463.37 304.446C1463.15 307.877 1462.11 309.682 1460.31 312.59C1459.78 313.473 1459.25 314.356 1458.7 315.266C1457.95 316.262 1457.95 316.262 1457.19 317.278C1456.53 317.278 1455.87 317.278 1455.19 317.278C1455.08 317.835 1454.98 318.392 1454.88 318.965C1454.05 321.755 1452.84 323.892 1451.19 326.278C1450.53 326.278 1449.87 326.278 1449.19 326.278C1449.03 327.372 1449.03 327.372 1448.86 328.489C1448.14 331.485 1447.07 333.342 1445.38 335.903C1442.53 340.445 1440.69 344.94 1439.05 350.028C1438.19 352.278 1438.19 352.278 1436.19 354.278C1434.97 358.019 1434.09 361.736 1433.31 365.59C1432.38 369.917 1430.85 373.83 1429.14 377.903C1427.9 380.983 1427.02 384.069 1426.19 387.278C1425.53 387.278 1424.87 387.278 1424.19 387.278C1424.23 388.206 1424.27 389.134 1424.31 390.09C1424.19 393.278 1424.19 393.278 1422.19 396.278C1421.69 397.924 1421.2 399.572 1420.76 401.231C1420.11 403.561 1419.38 405.855 1418.62 408.153C1418.25 409.294 1418.25 409.294 1417.87 410.458C1417.19 412.278 1417.19 412.278 1416.19 413.278C1415.98 415.148 1415.82 417.025 1415.69 418.903C1415.35 423.403 1414.9 427.822 1414.19 432.278C1415.26 433.098 1416.35 433.909 1417.44 434.715C1418.04 435.168 1418.64 435.62 1419.27 436.086C1421.25 437.317 1422.91 437.839 1425.19 438.278C1425.19 437.618 1425.19 436.958 1425.19 436.278C1426.18 436.005 1426.18 436.005 1427.2 435.727C1431.97 434.37 1436.02 433.019 1440.19 430.278C1440.96 429.988 1441.73 429.698 1442.52 429.399C1446.23 427.839 1449.18 425.513 1452.39 423.129C1454.6 421.67 1456.58 420.588 1458.95 419.481C1463.86 417.088 1467.94 413.815 1472.19 410.403C1473.71 409.197 1475.23 407.991 1476.75 406.786C1477.49 406.199 1478.23 405.613 1478.99 405.009C1484.37 400.774 1489.91 396.735 1495.43 392.672C1497.15 391.305 1498.65 389.85 1500.19 388.278C1514.38 375.278 1514.38 375.278 1518.19 375.278C1518.19 374.618 1518.19 373.958 1518.19 373.278C1519.54 371.946 1519.54 371.946 1521.38 370.465C1523.69 368.557 1525.77 366.683 1527.88 364.528C1529.98 362.476 1531.62 361.564 1534.19 360.278C1534.52 359.288 1534.85 358.298 1535.19 357.278C1536.93 355.559 1536.93 355.559 1539.06 353.778C1542.04 351.275 1542.04 351.275 1544.82 348.559C1546.19 347.278 1546.19 347.278 1548.19 347.278C1548.56 346.35 1548.56 346.35 1548.94 345.403C1550.42 342.874 1551.62 342.56 1554.19 341.278C1554.48 340.69 1554.77 340.102 1555.07 339.497C1556.4 336.852 1558.07 334.968 1560.06 332.778C1560.74 332.025 1561.42 331.272 1562.12 330.497C1566.29 326.024 1566.29 326.024 1568.19 324.278C1568.85 324.278 1569.51 324.278 1570.19 324.278C1570.48 323.68 1570.76 323.082 1571.06 322.465C1572.19 320.278 1572.19 320.278 1574.19 317.278C1574.85 317.278 1575.51 317.278 1576.19 317.278C1576.27 316.762 1576.35 316.247 1576.44 315.715C1577.28 312.97 1578.61 310.69 1580.07 308.227C1581.93 304.988 1583.54 301.631 1585.19 298.278C1585.85 298.278 1586.51 298.278 1587.19 298.278C1587.44 297.69 1587.7 297.102 1587.96 296.497C1591.45 290.19 1598.55 285.741 1605.19 283.278C1614.61 280.815 1626.46 280.884 1635.29 285.129C1637.68 286.576 1639.53 288.02 1641.19 290.278C1641.19 290.938 1641.19 291.598 1641.19 292.278C1641.85 292.278 1642.51 292.278 1643.19 292.278C1647.26 303.605 1645.44 311.684 1641.19 322.672C1640.49 324.484 1639.85 326.314 1639.24 328.157C1638.07 331.627 1636.74 335.006 1635.38 338.403C1634.98 339.38 1634.98 339.38 1634.58 340.378C1627 359.179 1627 359.179 1623.15 367.524C1621.37 371.421 1619.74 374.981 1619.19 379.278C1618.53 379.278 1617.87 379.278 1617.19 379.278C1616.86 381.918 1616.53 384.558 1616.19 387.278C1615.53 387.278 1614.87 387.278 1614.19 387.278C1613.92 388.433 1613.65 389.588 1613.38 390.778C1611.86 396.834 1609.56 402.483 1607.05 408.192C1605.94 410.88 1604.95 413.611 1603.94 416.34C1601.63 422.425 1598.79 428.126 1595.82 433.911C1593.91 437.841 1592.44 441.824 1591.02 445.95C1589.08 451.392 1586.07 456.3 1583.19 461.278C1584.34 460.845 1585.5 460.412 1586.69 459.965C1587.42 459.691 1588.16 459.416 1588.92 459.133C1590.32 458.605 1591.72 458.067 1593.11 457.516C1597.73 455.71 1602.37 454.389 1607.18 453.219C1609.72 452.424 1611.95 451.504 1614.36 450.391C1619.46 448.071 1624.69 446.474 1630.06 444.903C1632.09 444.297 1634.12 443.69 1636.15 443.083C1637.16 442.782 1638.17 442.481 1639.21 442.171C1643.71 440.822 1648.2 439.433 1652.69 438.028C1653.45 437.794 1654.2 437.56 1654.98 437.319C1658.36 436.258 1661.64 435.127 1664.89 433.704C1668.55 432.12 1672.21 431.066 1676.05 430.024C1678.37 429.389 1678.37 429.389 1680.19 427.278C1681.94 426.616 1683.71 426.021 1685.5 425.465C1692.17 423.318 1698.67 420.843 1705.19 418.278C1706.55 417.75 1706.55 417.75 1707.95 417.211C1708.79 416.883 1709.63 416.554 1710.5 416.215C1711.22 415.936 1711.94 415.656 1712.68 415.368C1717.55 413.253 1722.24 410.759 1726.98 408.348C1734.62 404.463 1742.3 400.898 1750.21 397.575C1753.75 396.033 1756.9 394.303 1760.19 392.278C1761.79 391.319 1763.4 390.36 1765 389.403C1765.84 388.896 1766.68 388.39 1767.55 387.868C1769.37 386.772 1771.19 385.681 1773.02 384.594C1773.92 384.057 1774.82 383.519 1775.75 382.965C1776.58 382.474 1777.4 381.983 1778.25 381.477C1780.12 380.422 1780.12 380.422 1781.19 379.278C1781.47 377.024 1781.64 374.769 1781.81 372.504C1782.19 370.278 1782.19 370.278 1784.19 367.278C1784.35 366.102 1784.52 364.927 1784.69 363.715C1785.19 360.278 1785.19 360.278 1787.19 358.278C1787.86 355.946 1788.53 353.613 1789.19 351.278C1790.17 349.269 1791.17 347.27 1792.19 345.278C1792.97 343.272 1793.7 341.251 1794.43 339.227C1795.19 337.278 1795.19 337.278 1796.81 334.09C1798.11 331.428 1798.76 329.194 1799.19 326.278C1799.85 326.278 1800.51 326.278 1801.19 326.278C1801.59 324.731 1801.59 324.731 1802 323.153C1802.92 319.601 1804.51 316.535 1806.19 313.278C1807.21 311.258 1808.23 309.237 1809.25 307.215C1810.01 305.713 1810.01 305.713 1810.79 304.18C1812.04 301.578 1813.14 298.968 1814.19 296.278C1816 292.496 1817.83 288.756 1820.19 285.278C1820.85 285.278 1821.51 285.278 1822.19 285.278C1822.23 284.494 1822.27 283.71 1822.31 282.903C1823.56 277.716 1826.34 273.741 1829.19 269.278C1831.84 264.952 1833.69 260.884 1835.19 256.028C1836.19 253.278 1836.19 253.278 1838.19 252.278C1838.35 251.618 1838.52 250.958 1838.69 250.278C1838.85 249.618 1839.02 248.958 1839.19 248.278C1839.85 247.948 1840.51 247.618 1841.19 247.278C1842.13 245.391 1843.07 243.503 1843.98 241.602C1846.61 236.536 1849.88 231.865 1853.5 227.465C1855.16 225.32 1855.79 223.93 1856.19 221.278C1856.85 221.278 1857.51 221.278 1858.19 221.278C1858.28 220.721 1858.38 220.164 1858.47 219.59C1859.37 216.689 1860.83 214.723 1862.62 212.278C1864.76 209.355 1866.67 206.569 1868.19 203.278C1868.85 203.278 1869.51 203.278 1870.19 203.278C1870.52 201.958 1870.85 200.638 1871.19 199.278C1871.85 199.278 1872.51 199.278 1873.19 199.278C1873.29 198.68 1873.39 198.082 1873.5 197.465C1874.29 194.965 1875.16 193.903 1877.19 192.278C1877.85 192.278 1878.51 192.278 1879.19 192.278C1879.44 191.742 1879.68 191.205 1879.94 190.653C1881.49 187.695 1883.22 184.981 1885.19 182.278C1885.85 182.278 1886.51 182.278 1887.19 182.278C1887.52 181.288 1887.85 180.298 1888.19 179.278C1888.85 179.278 1889.51 179.278 1890.19 179.278C1890.43 178.731 1890.67 178.185 1890.92 177.622C1892.49 174.72 1894.41 172.332 1896.5 169.778C1897.64 168.37 1897.64 168.37 1898.8 166.934C1901.1 164.374 1903.49 162.396 1906.19 160.278C1907.39 158.997 1908.56 157.685 1909.69 156.34C1912.4 153.172 1915.2 150.191 1918.19 147.278C1919.36 146.113 1920.52 144.946 1921.69 143.778C1922.85 142.611 1924.02 141.445 1925.19 140.278C1925.96 139.495 1926.74 138.713 1927.54 137.907C1930.35 135.118 1933.21 132.402 1936.12 129.715C1936.62 129.247 1937.12 128.778 1937.64 128.295C1940.95 125.237 1944.4 122.744 1948.19 120.278C1950.01 118.869 1951.82 117.452 1953.62 116.028C1969.23 104.317 1987.94 96.4174 2007.19 93.2779C2008.29 93.0936 2009.39 92.9092 2010.52 92.7193C2014.75 92.2103 2018.87 92.0865 2023.12 92.0904C2023.95 92.0905 2024.77 92.0906 2025.61 92.0906C2047.2 92.2882 2047.2 92.2882 2050.19 95.2779C2051.32 95.4223 2052.46 95.5666 2053.62 95.7154C2057.19 96.2779 2057.19 96.2779 2059.19 98.2779C2060.86 98.9585 2060.86 98.9585 2062.56 99.6529C2069.47 102.748 2071.81 107.834 2075.19 114.278C2075.6 114.988 2076.01 115.698 2076.43 116.43C2078.33 119.851 2079.22 121.656 2079 125.653C2078.19 128.278 2078.19 128.278 2077.19 130.278C2076.91 132.805 2076.74 135.332 2076.57 137.868C2076.19 140.278 2076.19 140.278 2074.19 143.278C2073.51 145.61 2072.85 147.943 2072.19 150.278C2071.19 152.611 2070.19 154.945 2069.19 157.278C2068.88 158.454 2068.57 159.629 2068.25 160.84C2067.1 164.567 2065.4 167.092 2063.19 170.278C2062.72 171.473 2062.72 171.473 2062.23 172.692C2061.2 175.247 2060 177.263 2058.44 179.528C2057.91 180.304 2057.38 181.08 2056.84 181.879C2056.02 183.067 2056.02 183.067 2055.19 184.278C2051.06 190.349 2051.06 190.349 2047.31 196.653C2042.3 205.639 2035.46 215.184 2028.05 222.344C2025.96 224.234 2025.96 224.234 2025.19 227.278C2023.25 229.465 2023.25 229.465 2021.19 231.278C2020.53 231.278 2019.87 231.278 2019.19 231.278C2018.72 232.206 2018.72 232.206 2018.25 233.153C2017.56 234.528 2016.88 235.903 2016.19 237.278C2015.53 237.278 2014.87 237.278 2014.19 237.278C2013.96 237.794 2013.73 238.309 2013.5 238.84C2011.71 242.173 2009.69 245.425 2007.19 248.278C2006.53 248.278 2005.87 248.278 2005.19 248.278C2005.1 248.868 2005.01 249.459 2004.92 250.067C2004 252.856 2002.77 253.813 2000.5 255.653C1997.79 257.903 1995.25 260.172 1992.81 262.715C1990.19 265.278 1990.19 265.278 1988.19 265.278C1987.86 266.598 1987.53 267.918 1987.19 269.278C1986.53 269.278 1985.87 269.278 1985.19 269.278C1984.86 270.268 1984.53 271.258 1984.19 272.278C1983.53 272.278 1982.87 272.278 1982.19 272.278C1981.94 273.041 1981.69 273.804 1981.44 274.59C1980.07 277.539 1978.95 278.636 1976.19 280.278C1975.53 280.278 1974.87 280.278 1974.19 280.278C1974.19 280.938 1974.19 281.598 1974.19 282.278C1972.51 284.004 1972.51 284.004 1970.31 285.903C1969.23 286.85 1969.23 286.85 1968.13 287.817C1966.19 289.278 1966.19 289.278 1964.19 289.278C1963.96 289.835 1963.73 290.392 1963.5 290.965C1961.07 295.249 1957.29 298.591 1953.19 301.278C1952.53 301.278 1951.87 301.278 1951.19 301.278C1950.94 302.02 1950.69 302.763 1950.44 303.528C1949.08 306.508 1947.68 308.177 1945.19 310.278C1944.53 310.278 1943.87 310.278 1943.19 310.278C1942.94 310.876 1942.68 311.474 1942.43 312.09C1941.02 314.569 1939.69 315.648 1937.38 317.278C1934.94 319.016 1932.62 320.747 1930.31 322.653C1928.19 324.278 1928.19 324.278 1926.19 324.278C1925.86 325.268 1925.53 326.258 1925.19 327.278C1924.53 327.278 1923.87 327.278 1923.19 327.278C1922.86 328.268 1922.53 329.258 1922.19 330.278C1920.52 331.961 1920.52 331.961 1918.44 333.715C1917.35 334.642 1917.35 334.642 1916.23 335.586C1913.9 337.513 1911.57 339.419 1909.19 341.278C1908.48 341.848 1907.78 342.417 1907.06 343.004C1906.28 343.631 1905.49 344.257 1904.69 344.903C1903.59 345.788 1903.59 345.788 1902.47 346.692C1900.12 348.326 1897.88 349.321 1895.19 350.278C1895.19 350.938 1895.19 351.598 1895.19 352.278C1894.2 352.278 1893.21 352.278 1892.19 352.278C1891.86 353.268 1891.53 354.258 1891.19 355.278C1890.53 355.278 1889.87 355.278 1889.19 355.278C1889.19 355.938 1889.19 356.598 1889.19 357.278C1887.21 358.675 1885.23 359.981 1883.19 361.278C1878.72 364.275 1874.96 367.416 1871.19 371.278C1861.35 380.224 1861.35 380.224 1857.5 380.403C1856.74 380.362 1855.97 380.32 1855.19 380.278C1855.19 380.938 1855.19 381.598 1855.19 382.278C1854.53 382.278 1853.87 382.278 1853.19 382.278C1853.25 383.918 1853.25 383.918 1853.31 385.59C1853.19 389.278 1853.19 389.278 1851.19 392.278C1850.77 395.18 1850.77 395.18 1850.62 398.34C1850.28 404.085 1850.28 404.085 1849.19 406.278C1848.68 412.425 1849.14 415.357 1853.19 420.278C1853.85 421.103 1854.51 421.928 1855.19 422.778C1873.68 438.185 1899.35 435.857 1921.87 435.669C1925.13 435.647 1928.38 435.648 1931.64 435.649C1934.83 435.649 1938.02 435.638 1941.21 435.623C1942.71 435.617 1944.21 435.613 1945.71 435.612C1956.03 435.59 1965.97 434.726 1976.19 433.278C1978.85 432.935 1981.51 432.607 1984.18 432.278C1986.81 431.945 1989.43 431.612 1992.06 431.278C1992.72 431.195 1993.39 431.113 1994.07 431.028C2001.03 430.159 2007.91 429.206 2014.77 427.751C2020.36 426.657 2026.03 426.053 2031.68 425.335C2032.62 425.211 2033.56 425.088 2034.53 424.961C2035.38 424.854 2036.23 424.746 2037.1 424.635C2039.24 424.373 2039.24 424.373 2041.19 423.278C2043.32 423.004 2045.46 422.833 2047.61 422.657C2061.19 420.663 2075.21 414.44 2087.56 408.653C2088.73 408.113 2088.73 408.113 2089.92 407.563C2094.62 405.297 2098.24 402.678 2102.19 399.278C2102.85 399.278 2103.51 399.278 2104.19 399.278C2104.46 398.713 2104.73 398.149 2105.01 397.567C2106.24 395.184 2107.59 392.933 2109 390.653C2113.44 383.286 2117.04 375.78 2120.16 367.774C2124.51 357.18 2130.47 347.176 2136.19 337.278C2136.85 337.278 2137.51 337.278 2138.19 337.278C2138.26 336.441 2138.34 335.605 2138.42 334.743C2139.36 330.481 2141.18 327.49 2143.5 323.84C2144.29 322.571 2145.08 321.302 2145.86 320.032C2146.25 319.413 2146.64 318.795 2147.04 318.157C2148.19 316.272 2149.28 314.36 2150.36 312.43C2152.19 309.278 2152.19 309.278 2154.19 307.278C2154.6 306.247 2155.01 305.215 2155.44 304.153C2159.72 293.945 2168.14 286.648 2178.19 282.278C2179.34 281.742 2180.5 281.205 2181.69 280.653C2192.87 276.26 2205.88 277.196 2217.03 281.11C2219.19 282.278 2219.19 282.278 2220.19 285.278C2220.76 285.546 2221.34 285.814 2221.94 286.09C2225.96 288.214 2228.36 291.815 2230.56 295.715C2232.5 303.649 2228.05 310.672 2224.41 317.387C2223.19 319.278 2223.19 319.278 2221.19 320.278C2220.38 321.749 2219.64 323.256 2218.94 324.778C2216.82 329.173 2214.37 333.099 2211.6 337.106C2209.84 339.81 2208.47 342.614 2207.14 345.551C2206.19 347.278 2206.19 347.278 2204.76 348.7C2202.81 350.659 2201.58 352.764 2200.19 355.153C2199.69 355.996 2199.2 356.839 2198.69 357.708C2197.65 359.492 2196.63 361.29 2195.62 363.098C2195.15 363.818 2194.68 364.537 2194.19 365.278C2193.53 365.278 2192.87 365.278 2192.19 365.278C2192.09 365.986 2191.99 366.693 2191.89 367.422C2191.07 370.735 2189.72 373.061 2187.94 375.965C2185.22 380.485 2182.75 385.026 2180.45 389.762C2178.58 393.483 2176.55 397.105 2174.52 400.735C2173.23 403.206 2172.19 405.676 2171.19 408.278C2170.71 409.371 2170.24 410.464 2169.75 411.59C2167.09 417.82 2164.89 423.499 2164.19 430.278C2164.93 430.546 2165.67 430.814 2166.44 431.09C2169.19 432.278 2169.19 432.278 2171 433.778C2176.86 437.795 2184.21 437.564 2191.04 437.521C2192.47 437.524 2192.47 437.524 2193.93 437.527C2197.05 437.53 2200.18 437.52 2203.31 437.508C2205.5 437.507 2207.68 437.507 2209.87 437.507C2214.44 437.505 2219.02 437.497 2223.59 437.484C2229.44 437.467 2235.29 437.463 2241.14 437.464C2245.65 437.463 2250.17 437.458 2254.68 437.451C2256.83 437.447 2258.99 437.446 2261.15 437.445C2264.17 437.443 2267.19 437.434 2270.2 437.423C2271.09 437.424 2271.97 437.424 2272.87 437.425C2277.72 437.4 2282.43 437.118 2287.24 436.508C2290.1 436.171 2292.94 436.097 2295.82 436.032C2297.63 435.985 2297.63 435.985 2299.47 435.937C2301.37 435.889 2301.37 435.889 2303.31 435.84C2313.05 435.563 2322.71 435.084 2332.41 434.154C2342.26 433.226 2352.13 432.538 2362 431.859C2363.98 431.723 2365.96 431.585 2367.94 431.446C2370.76 431.248 2373.58 431.055 2376.39 430.864C2377.23 430.805 2378.07 430.745 2378.93 430.684C2381.35 430.523 2383.77 430.391 2386.19 430.278C2387.08 430.233 2387.96 430.189 2388.88 430.143C2390.2 430.105 2390.2 430.105 2391.55 430.065C2392.34 430.038 2393.13 430.011 2393.95 429.983C2397.98 430.514 2400.72 433.178 2403.19 436.278C2403.68 437.763 2403.68 437.763 2404.19 439.278C2405.46 440.392 2405.46 440.392 2406.75 441.528C2409.19 444.278 2409.19 444.278 2409.81 447.465C2408.96 452.668 2406.72 456.702 2404.19 461.278C2403.51 462.608 2402.85 463.94 2402.19 465.278C2401.53 465.278 2400.87 465.278 2400.19 465.278C2400.19 465.938 2400.19 466.598 2400.19 467.278C2397.06 469.081 2394.53 469.612 2390.94 469.876C2389.94 469.955 2388.94 470.034 2387.9 470.116C2386.86 470.19 2385.82 470.264 2384.75 470.34C2382.69 470.495 2380.63 470.653 2378.57 470.813C2377.65 470.879 2376.74 470.945 2375.8 471.013C2373.19 471.234 2373.19 471.234 2370.67 471.789C2368.11 472.293 2365.7 472.467 2363.1 472.559C2362.15 472.597 2361.2 472.634 2360.22 472.672C2359.24 472.707 2358.26 472.742 2357.25 472.778C2355.3 472.847 2353.36 472.92 2351.41 472.997C2350.55 473.027 2349.69 473.057 2348.81 473.088C2346.13 473.238 2346.13 473.238 2343.31 473.778C2339.83 474.335 2336.48 474.473 2332.95 474.559C2331.94 474.587 2331.94 474.587 2330.9 474.615C2328.74 474.673 2326.59 474.726 2324.44 474.778C2313.91 474.95 2313.91 474.95 2303.42 475.778C2295.08 476.72 2286.63 476.616 2278.25 476.778C2274.72 476.847 2271.19 476.92 2267.66 476.997C2266.78 477.016 2265.89 477.035 2264.98 477.055C2259.39 477.188 2253.82 477.457 2248.24 477.801C2236.24 478.511 2224.22 478.428 2212.19 478.408C2209.54 478.405 2206.88 478.404 2204.23 478.408C2200.35 478.414 2196.47 478.414 2192.6 478.411C2191.41 478.413 2190.22 478.415 2189 478.417C2187.9 478.414 2186.8 478.411 2185.66 478.407C2184.7 478.406 2183.74 478.406 2182.74 478.405C2180.39 478.288 2178.45 477.887 2176.19 477.278C2173.52 477.078 2170.86 476.909 2168.19 476.778C2164.08 476.577 2160.19 476.295 2156.19 475.278C2153.79 475.102 2151.4 474.96 2149 474.84C2134.29 473.958 2120.08 469.197 2108.19 460.278C2108.19 459.618 2108.19 458.958 2108.19 458.278C2106.87 457.618 2105.55 456.958 2104.19 456.278C2104.19 455.618 2104.19 454.958 2104.19 454.278C2103.2 453.948 2102.21 453.618 2101.19 453.278C2101.19 452.288 2101.19 451.298 2101.19 450.278C2100.63 450.532 2100.07 450.786 2099.5 451.047C2097.07 452.143 2094.63 453.215 2092.19 454.278C2091.56 454.551 2090.94 454.824 2090.3 455.106C2084.85 457.331 2079.2 458.416 2073.44 459.594C2069.96 460.325 2066.59 461.268 2063.19 462.278C2055.27 464.475 2047.43 465.938 2039.29 466.997C2036.03 467.432 2032.78 467.911 2029.53 468.384C2025.08 469.028 2020.64 469.655 2016.19 470.278C2015.45 470.381 2014.72 470.485 2013.96 470.591C2005.57 471.756 1997.23 472.561 1988.77 472.937C1985.02 473.084 1985.02 473.084 1981.34 473.776C1978.6 474.416 1975.99 474.479 1973.17 474.559C1972 474.597 1970.83 474.634 1969.63 474.672C1968.41 474.707 1967.19 474.742 1965.94 474.778C1963.54 474.847 1961.14 474.92 1958.73 474.997C1957.67 475.027 1956.61 475.057 1955.51 475.088C1952.11 475.24 1952.11 475.24 1948.45 475.782C1944.53 476.28 1940.69 476.405 1936.73 476.407C1936.04 476.409 1935.34 476.411 1934.62 476.413C1932.35 476.417 1930.07 476.414 1927.8 476.411C1926.2 476.411 1924.61 476.412 1923.02 476.414C1919.69 476.415 1916.37 476.413 1913.04 476.408C1908.78 476.403 1904.52 476.406 1900.26 476.412C1896.98 476.415 1893.7 476.414 1890.41 476.412C1888.84 476.411 1887.27 476.412 1885.7 476.414C1883.51 476.417 1881.32 476.413 1879.12 476.407C1877.25 476.406 1877.25 476.406 1875.35 476.405C1872.72 476.299 1870.68 475.992 1868.19 475.278C1864.53 474.977 1860.87 474.77 1857.21 474.559C1854.19 474.278 1854.19 474.278 1853.19 473.278C1851.85 473.093 1850.51 472.957 1849.16 472.844C1831.07 470.99 1812.04 463.404 1799.19 450.278C1799.19 449.618 1799.19 448.958 1799.19 448.278C1798.53 448.278 1797.87 448.278 1797.19 448.278C1797.19 447.618 1797.19 446.958 1797.19 446.278C1796.2 445.948 1795.21 445.618 1794.19 445.278C1792.62 443.754 1792.62 443.754 1791.06 441.903C1790.54 441.297 1790.03 440.691 1789.49 440.067C1788.19 438.278 1788.19 438.278 1787.19 435.278C1786.53 434.948 1785.87 434.618 1785.19 434.278C1784.56 432.215 1784.56 432.215 1784.19 430.278C1783.5 430.592 1782.81 430.907 1782.1 431.231C1780.69 431.873 1780.69 431.873 1779.25 432.528C1777.73 433.22 1777.73 433.22 1776.18 433.926C1773.75 435.023 1771.32 436.093 1768.88 437.153C1765.04 438.838 1761.34 440.734 1757.62 442.653C1751.87 445.593 1746.02 447.951 1739.95 450.142C1735.98 451.582 1732.14 453.157 1728.31 454.965C1724.2 456.897 1720.14 458.249 1715.77 459.469C1712.88 460.374 1710.16 461.514 1707.38 462.715C1702.13 464.964 1696.85 466.641 1691.38 468.251C1688.33 469.232 1685.49 470.407 1682.56 471.715C1676.5 474.352 1670.28 475.953 1663.86 477.491C1659.26 478.616 1655.41 480.08 1651.19 482.278C1648.86 482.628 1646.52 482.963 1644.19 483.278C1643.53 483.938 1642.87 484.598 1642.19 485.278C1640.42 485.916 1640.42 485.916 1638.3 486.461C1637.53 486.667 1636.75 486.873 1635.96 487.085C1635.14 487.293 1634.33 487.501 1633.5 487.715C1627.81 489.186 1622.59 490.93 1617.19 493.278C1614.4 494.193 1611.58 494.989 1608.75 495.778C1601.9 497.699 1595.31 499.898 1588.8 502.778C1583.61 504.935 1578.25 506.457 1572.86 508.028C1571.64 508.399 1571.64 508.399 1570.39 508.778C1569.65 508.994 1568.92 509.211 1568.16 509.434C1565.92 510.393 1564.74 511.405 1563.19 513.278C1562.1 515.992 1562.1 515.992 1561.25 519.028C1560.15 522.523 1559.12 525.723 1557.19 528.84C1554.92 532.743 1553.54 536.652 1552.12 540.922C1551.19 543.278 1551.19 543.278 1549.19 545.278C1548.48 546.928 1547.81 548.594 1547.19 550.278C1546.53 550.278 1545.87 550.278 1545.19 550.278C1545.08 551 1544.98 551.722 1544.88 552.465C1544.12 555.538 1542.84 557.599 1541.19 560.278C1541 561.02 1540.82 561.763 1540.62 562.528C1540.48 563.105 1540.34 563.683 1540.19 564.278C1539.53 564.608 1538.87 564.938 1538.19 565.278C1537 567.277 1537 567.277 1535.88 569.715C1535.23 571.055 1535.23 571.055 1534.56 572.422C1534.11 573.365 1533.66 574.307 1533.19 575.278C1532.25 577.154 1531.32 579.029 1530.38 580.903C1529.96 581.741 1529.54 582.579 1529.11 583.442C1528.8 584.048 1528.5 584.654 1528.19 585.278C1527.53 585.278 1526.87 585.278 1526.19 585.278C1526.05 586.357 1526.05 586.357 1525.91 587.458C1525.07 590.747 1523.71 592.691 1521.69 595.403C1519.67 598.117 1518.26 600.06 1517.19 603.278C1516.21 604.296 1515.2 605.294 1514.19 606.278C1513.21 607.595 1512.26 608.934 1511.34 610.29C1510.56 611.426 1510.56 611.426 1509.76 612.585C1508.66 614.182 1507.57 615.781 1506.48 617.381C1505.96 618.135 1505.44 618.888 1504.9 619.665C1504.43 620.358 1503.96 621.051 1503.47 621.765C1502.83 622.514 1502.83 622.514 1502.19 623.278C1501.53 623.278 1500.87 623.278 1500.19 623.278C1499.96 623.835 1499.73 624.392 1499.5 624.965C1496.58 630.104 1491.66 633.548 1487.19 637.278C1486.4 638.062 1485.62 638.845 1484.81 639.653C1482.59 641.874 1480.34 643.996 1478 646.09C1477.33 646.695 1476.65 647.3 1475.96 647.922C1474.19 649.278 1474.19 649.278 1472.19 649.278C1472.19 649.938 1472.19 650.598 1472.19 651.278C1471.2 651.278 1470.21 651.278 1469.19 651.278C1468.86 652.268 1468.53 653.258 1468.19 654.278C1453.8 664.144 1437.5 665.7 1420.5 665.653C1419.8 665.653 1419.09 665.652 1418.37 665.652C1401.51 665.602 1383.76 663.847 1371.19 651.278C1368.72 648.029 1366.43 644.686 1364.19 641.278C1363.53 640.288 1362.87 639.298 1362.19 638.278C1361.51 636.282 1360.84 634.282 1360.19 632.278C1359.86 631.948 1359.53 631.618 1359.19 631.278C1358.97 627.02 1359 622.757 1359 618.495C1359 616.353 1358.98 614.211 1358.96 612.069C1358.96 610.713 1358.96 609.357 1358.96 608.001C1358.95 606.761 1358.95 605.521 1358.94 604.243C1359.19 601.278 1359.19 601.278 1361.19 599.278C1361.87 597.282 1362.53 595.281 1363.19 593.278C1364.28 590.894 1365.39 588.554 1366.56 586.215C1366.85 585.617 1367.15 585.018 1367.45 584.401C1369.32 580.651 1371.35 577.369 1374.19 574.278C1374.85 574.278 1375.51 574.278 1376.19 574.278C1376.19 573.288 1376.19 572.298 1376.19 571.278C1376.85 570.948 1377.51 570.618 1378.19 570.278C1379.32 568.261 1379.32 568.261 1380.19 566.278C1380.85 566.278 1381.51 566.278 1382.19 566.278C1382.19 565.618 1382.19 564.958 1382.19 564.278C1382.85 564.278 1383.51 564.278 1384.19 564.278C1384.48 563.68 1384.76 563.082 1385.06 562.465C1386.19 560.278 1386.19 560.278 1388.19 557.278C1388.85 557.278 1389.51 557.278 1390.19 557.278C1390.41 556.7 1390.64 556.123 1390.88 555.528C1392.54 552.68 1394.5 551.157 1397.19 549.278C1397.85 549.278 1398.51 549.278 1399.19 549.278C1399.19 548.618 1399.19 547.958 1399.19 547.278C1400.18 547.278 1401.17 547.278 1402.19 547.278C1402.52 546.288 1402.85 545.298 1403.19 544.278C1404.63 542.943 1404.63 542.943 1406.46 541.614C1407.12 541.132 1407.78 540.65 1408.46 540.153C1409.15 539.658 1409.85 539.163 1410.56 538.653C1411.25 538.15 1411.93 537.647 1412.64 537.129C1415.52 535.046 1417.79 533.411 1421.19 532.278C1421.19 531.618 1421.19 530.958 1421.19 530.278C1423.81 528.773 1426.43 527.274 1429.06 525.778C1429.81 525.349 1430.56 524.919 1431.32 524.477C1432.04 524.071 1432.76 523.665 1433.49 523.247C1434.48 522.681 1434.48 522.681 1435.49 522.104C1437.19 521.278 1437.19 521.278 1439.19 521.278C1439.19 520.618 1439.19 519.958 1439.19 519.278C1453.2 511.706 1467.28 504.421 1481.9 498.067C1485.39 496.546 1488.8 494.973 1492.17 493.2C1496.99 490.752 1502.05 489.514 1507.27 488.211C1510.47 487.349 1512.77 486.693 1515.14 484.317C1516.31 482.042 1516.97 479.754 1517.61 477.286C1519.95 469.111 1523.87 461.287 1527.18 453.467C1529.63 447.664 1531.94 441.827 1534.17 435.934C1535 433.769 1535.87 431.647 1536.81 429.528C1538.51 425.516 1539.86 421.425 1541.19 417.278C1540.71 417.702 1540.24 418.126 1539.75 418.563C1498.91 454.791 1498.91 454.791 1477.19 459.278C1477.19 459.938 1477.19 460.598 1477.19 461.278C1473.59 462.895 1469.98 464.494 1466.38 466.09C1464.87 466.768 1464.87 466.768 1463.33 467.46C1456.72 470.37 1450.23 472.693 1443.19 474.278C1442.3 474.481 1441.4 474.684 1440.49 474.893C1432.04 476.556 1423.65 476.583 1415.08 476.539C1412.63 476.528 1410.17 476.539 1407.72 476.551C1396.67 476.562 1386.29 476.217 1376.19 471.278C1376.19 470.618 1376.19 469.958 1376.19 469.278C1375.24 469.134 1374.29 468.989 1373.31 468.84C1370.19 468.278 1370.19 468.278 1368.19 467.278C1368.19 466.618 1368.19 465.958 1368.19 465.278C1367.63 465.195 1367.07 465.113 1366.5 465.028C1363.46 464.042 1361.56 462.392 1359.19 460.278C1358.86 459.618 1358.53 458.958 1358.19 458.278C1353.64 458.711 1349.25 459.202 1344.81 460.278C1340.36 461.341 1335.94 461.721 1331.38 462.032C1329.21 462.045 1329.21 462.045 1328.19 463.278C1326.29 463.553 1324.38 463.77 1322.46 463.961C1321.29 464.085 1320.11 464.208 1318.89 464.335C1316.41 464.586 1313.92 464.836 1311.44 465.085C1304.28 465.772 1304.28 465.772 1297.27 467.278C1291.01 469.019 1284.44 469.257 1278 469.84C1275.32 470.088 1272.64 470.341 1269.96 470.594C1268.78 470.702 1267.6 470.81 1266.38 470.921C1263.27 471.222 1263.27 471.222 1260.58 471.803C1258.09 472.298 1255.74 472.467 1253.21 472.559C1252.29 472.597 1251.38 472.634 1250.43 472.672C1248.51 472.743 1246.59 472.813 1244.67 472.883C1243.76 472.921 1242.84 472.958 1241.9 472.997C1241.07 473.027 1240.23 473.057 1239.38 473.088C1237.01 473.208 1237.01 473.208 1234.19 474.278C1232.72 474.392 1231.24 474.454 1229.77 474.483C1228.87 474.503 1227.97 474.523 1227.04 474.544C1225.57 474.569 1225.57 474.569 1224.07 474.594C1223.04 474.615 1222 474.636 1220.94 474.658C1217.54 474.724 1214.15 474.783 1210.75 474.84C1209.01 474.872 1209.01 474.872 1207.24 474.904C1190.89 475.195 1174.54 475.381 1158.19 475.403C1157.31 475.405 1156.44 475.408 1155.54 475.411C1146.12 475.433 1136.72 475.292 1127.3 474.872C1126.06 474.821 1126.06 474.821 1124.8 474.77C1118.35 474.445 1113.01 473.138 1107.19 470.278C1106 469.724 1104.82 469.169 1103.59 468.598C1094.48 464.243 1086.47 459.886 1082.19 450.278C1081.79 448.726 1081.43 447.162 1081.12 445.59C1080.71 442.65 1080.71 442.65 1079.19 440.278C1078.93 435.198 1079.16 431.965 1081.19 427.278C1081.23 425.612 1081.23 423.944 1081.19 422.278C1080.25 423.036 1080.25 423.036 1079.29 423.809C1078.47 424.459 1077.65 425.109 1076.81 425.778C1076 426.428 1075.19 427.077 1074.35 427.747C1072.19 429.278 1072.19 429.278 1070.19 429.278C1070.19 429.938 1070.19 430.598 1070.19 431.278C1069.63 431.534 1069.07 431.791 1068.49 432.055C1060.61 435.817 1053.47 440.494 1046.19 445.278C1044.71 446.242 1043.23 447.202 1041.75 448.153C1040.95 448.675 1040.95 448.675 1040.13 449.208C1037.86 450.46 1035.5 451.436 1033.11 452.439C1029.12 454.181 1025.28 456.233 1021.41 458.229C1012.63 462.692 1003.68 465.874 994.188 468.465C992.333 468.978 990.479 469.492 988.625 470.008C987.819 470.229 987.014 470.45 986.184 470.677C984.141 471.23 984.141 471.23 982.188 472.278C972.718 474.472 963.17 474.759 953.5 474.778C952.748 474.78 951.997 474.783 951.222 474.785C936.577 474.766 925.582 472.867 913.5 464.215C904.883 458.83 894.539 462.394 885.188 464.278C882.993 464.687 880.797 465.083 878.599 465.476C877.248 465.718 875.898 465.964 874.549 466.216C868 467.406 861.412 468.046 854.785 468.632C853.582 468.739 853.582 468.739 852.355 468.848C851.647 468.908 850.938 468.967 850.208 469.028C848.138 469.284 846.208 469.768 844.188 470.278C841.877 470.476 839.564 470.64 837.25 470.778C832.516 471.04 832.516 471.04 827.845 471.778C824.95 472.323 822.202 472.472 819.258 472.559C818.132 472.597 817.007 472.634 815.848 472.672C814.681 472.707 813.514 472.742 812.312 472.778C810.002 472.847 807.693 472.92 805.383 472.997C804.362 473.027 803.341 473.057 802.29 473.088C799.15 473.233 799.15 473.233 795.921 473.78C792.348 474.257 788.954 474.414 785.352 474.432C784.701 474.436 784.05 474.441 783.38 474.445C781.219 474.458 779.057 474.465 776.896 474.471C775.338 474.479 773.78 474.487 772.222 474.496C767.123 474.522 762.025 474.537 756.926 474.551C755.164 474.557 753.403 474.562 751.641 474.567C744.311 474.589 736.981 474.608 729.65 474.619C719.175 474.635 708.701 474.668 698.226 474.725C690.843 474.764 683.46 474.784 676.077 474.789C671.676 474.793 667.275 474.805 662.874 474.837C658.729 474.867 654.585 474.873 650.441 474.862C648.929 474.862 647.416 474.87 645.904 474.887C636.343 474.993 628.756 473.739 620.188 469.278C619.261 468.801 618.335 468.324 617.381 467.833C608.73 463.212 602.41 456.614 599.188 447.278C598.817 444.366 598.811 441.521 598.875 438.59C598.872 437.845 598.869 437.099 598.865 436.331C598.903 432.451 599.154 429.601 601.188 426.278C601.476 425.164 601.765 424.05 602.062 422.903C603.252 419.072 604.927 416.566 607.188 413.278C607.758 412.062 608.3 410.832 608.812 409.59C610.188 406.278 610.188 406.278 612.188 403.278C612.848 403.278 613.507 403.278 614.188 403.278C614.304 402.565 614.42 401.852 614.539 401.118C615.225 398.116 616.258 395.627 617.562 392.84C618.01 391.88 618.457 390.92 618.918 389.93C620.307 387.029 621.749 384.155 623.188 381.278C623.538 380.35 623.889 379.422 624.25 378.465C625.188 376.278 625.188 376.278 627.188 375.278C627.914 373.299 628.586 371.298 629.188 369.278C629.848 369.278 630.507 369.278 631.188 369.278C631.188 367.958 631.188 366.638 631.188 365.278C631.848 365.278 632.507 365.278 633.188 365.278C633.311 364.7 633.435 364.123 633.562 363.528C634.202 361.227 634.981 359.337 636.188 357.278C636.848 356.948 637.507 356.618 638.188 356.278C639.368 354.51 639.368 354.51 640.5 352.34C640.941 351.526 641.382 350.711 641.836 349.872C643.136 347.378 644.387 344.865 645.625 342.34C647.805 337.918 650.273 333.731 652.84 329.524C655.766 324.646 657.99 319.51 660.188 314.278C660.848 314.278 661.507 314.278 662.188 314.278C662.302 313.709 662.417 313.141 662.535 312.555C663.255 310.041 664.307 308.096 665.625 305.84C667.07 303.32 668.303 300.987 669.375 298.278C670.188 296.278 670.188 296.278 672.188 295.278C674.169 292.346 675.541 289.767 676.188 286.278C676.848 286.278 677.507 286.278 678.188 286.278C678.28 285.578 678.373 284.878 678.469 284.157C679.33 280.709 680.824 278.236 682.688 275.215C685.619 270.52 685.619 270.52 687.188 265.278C687.848 265.278 688.507 265.278 689.188 265.278C689.456 264.577 689.724 263.875 690 263.153C691.765 258.879 693.709 254.982 696.312 251.153C697.916 248.694 698.749 247.126 699.188 244.278C699.848 244.278 700.507 244.278 701.188 244.278C701.126 243.102 701.126 243.102 701.062 241.903C701.188 239.278 701.188 239.278 703.188 237.278C703.835 234.707 703.835 234.707 704.188 232.278C704.848 232.278 705.507 232.278 706.188 232.278C706.311 231.309 706.435 230.339 706.562 229.34C706.769 228.33 706.975 227.319 707.188 226.278C707.848 225.948 708.507 225.618 709.188 225.278C710.11 223.307 710.11 223.307 710.938 220.903C712.829 215.946 715.195 211.426 717.82 206.821C719.145 204.357 720.201 201.894 721.188 199.278C721.848 199.278 722.507 199.278 723.188 199.278C723.456 198.412 723.724 197.545 724 196.653C725.159 193.36 726.57 190.367 728.188 187.278C728.848 187.278 729.507 187.278 730.188 187.278C730.27 186.37 730.352 185.463 730.438 184.528C731.289 178.517 732.832 170.634 737.188 166.278C737.797 164.386 737.797 164.386 738.188 162.215C738.353 161.419 738.517 160.622 738.688 159.801C738.853 158.969 739.017 158.136 739.188 157.278C739.514 155.631 739.847 153.985 740.188 152.34C740.332 151.609 740.476 150.879 740.625 150.126C741.188 148.278 741.188 148.278 743.188 146.278C743.796 143.707 744.307 141.19 744.75 138.59C744.876 137.895 745.001 137.199 745.131 136.483C745.379 135.091 745.619 133.698 745.85 132.304C746.169 130.388 746.517 128.477 746.867 126.567C747.19 123.249 746.932 121.414 745.75 118.34C745.319 117.182 745.319 117.182 744.879 116.001C744.651 115.432 744.423 114.864 744.188 114.278C737.983 113.827 732.515 114.689 726.5 116.09C725.776 116.256 725.051 116.421 724.305 116.591C719.911 117.662 716.232 119.211 712.188 121.278C711.197 121.278 710.207 121.278 709.188 121.278C709.188 121.938 709.188 122.598 709.188 123.278C708.654 123.509 708.12 123.739 707.57 123.977C698.239 128.061 689.567 132.469 681.188 138.278C679.752 139.239 678.314 140.198 676.875 141.153C674.247 142.899 671.63 144.658 669.023 146.434C667.943 147.166 666.863 147.899 665.75 148.653C664.741 149.341 663.731 150.03 662.691 150.739C660.188 152.278 660.188 152.278 658.188 152.278C658.188 152.938 658.188 153.598 658.188 154.278C656.53 155.622 654.862 156.954 653.188 158.278C652.692 158.959 652.197 159.639 651.688 160.34C649.821 162.752 647.812 163.719 645.188 165.278C633.314 173.55 633.314 173.55 623.188 183.778C620.294 187.394 616.892 190.496 613.188 193.278C612.527 193.278 611.868 193.278 611.188 193.278C611.188 193.938 611.188 194.598 611.188 195.278C609.762 196.68 609.762 196.68 607.875 198.215C606.01 199.744 604.243 201.219 602.582 202.969C601.188 204.278 601.188 204.278 599.188 204.278C598.857 205.268 598.528 206.258 598.188 207.278C597.527 207.278 596.868 207.278 596.188 207.278C595.857 208.268 595.528 209.258 595.188 210.278C593.551 211.891 593.551 211.891 591.5 213.59C588.804 215.865 586.255 218.17 583.812 220.715C581.188 223.278 581.188 223.278 579.188 223.278C578.94 223.854 578.692 224.43 578.438 225.024C577.001 227.615 575.328 229.298 573.188 231.34C570.813 233.614 569.024 235.523 567.188 238.278C566.527 238.278 565.868 238.278 565.188 238.278C565.188 238.938 565.188 239.598 565.188 240.278C563.648 241.723 563.648 241.723 561.562 243.403C557.967 246.447 555.279 249.605 552.559 253.43C550.677 255.966 548.446 258.078 546.188 260.278C545.527 261.103 544.868 261.928 544.188 262.778C542.015 265.494 539.676 267.846 537.188 270.278C531.298 276.043 525.736 281.979 520.488 288.336C519.956 288.977 519.424 289.618 518.875 290.278C518.404 290.855 517.934 291.433 517.449 292.028C516.188 293.278 516.188 293.278 514.188 293.278C514.188 294.268 514.188 295.258 514.188 296.278C513.527 296.278 512.868 296.278 512.188 296.278C511.857 297.268 511.528 298.258 511.188 299.278C509.542 300.965 507.87 302.627 506.188 304.278C505.088 305.524 504.001 306.781 502.926 308.047C502.364 308.708 501.803 309.369 501.225 310.049C500.06 311.427 498.899 312.808 497.74 314.19C497.183 314.844 496.625 315.498 496.051 316.172C495.548 316.769 495.046 317.366 494.529 317.98C493.188 319.278 493.188 319.278 491.188 319.278C490.816 320.082 490.816 320.082 490.438 320.903C488.881 323.86 487.153 326.575 485.188 329.278C484.527 329.278 483.868 329.278 483.188 329.278C483.188 329.938 483.188 330.598 483.188 331.278C482.527 331.278 481.868 331.278 481.188 331.278C480.948 331.826 480.708 332.374 480.461 332.938C478.883 335.838 476.928 338.182 474.812 340.715C471.469 344.73 471.469 344.73 468.211 348.813C466.188 351.278 466.188 351.278 463.73 353.696C460.076 357.407 457.207 361.605 454.176 365.829C453.52 366.637 452.864 367.445 452.188 368.278C451.527 368.278 450.868 368.278 450.188 368.278C449.527 369.598 448.868 370.918 448.188 372.278C447.527 372.278 446.868 372.278 446.188 372.278C446.188 373.268 446.188 374.258 446.188 375.278C444.312 377.465 444.312 377.465 442.188 379.278C441.527 379.278 440.868 379.278 440.188 379.278C439.527 380.928 438.868 382.578 438.188 384.278C437.527 384.278 436.868 384.278 436.188 384.278C435.946 384.815 435.705 385.353 435.457 385.907C433.854 388.9 431.913 391.5 429.875 394.215C429.116 395.235 428.356 396.255 427.574 397.305C425.266 400.18 422.81 402.692 420.188 405.278C414.748 411.45 409.635 417.695 405.344 424.731C404.962 425.241 404.581 425.752 404.188 426.278C403.527 426.278 402.868 426.278 402.188 426.278C401.925 426.85 401.662 427.423 401.391 428.012C400.111 430.422 398.639 432.397 396.938 434.528C394.625 437.437 392.401 440.373 390.25 443.403C387.558 447.026 384.474 449.851 381.016 452.735C379.032 454.358 379.032 454.358 376.812 456.715C375.188 458.278 375.188 458.278 373.188 458.278C373.188 458.938 373.188 459.598 373.188 460.278C364.565 467.576 353.957 469.003 343.043 468.637C337.844 468.153 333.75 466.751 329.188 464.278C328.156 463.742 327.125 463.205 326.062 462.653C325.444 462.199 324.825 461.745 324.188 461.278C324.188 460.618 324.188 459.958 324.188 459.278C323.421 459.042 322.654 458.806 321.863 458.563C317.846 456.634 316.927 453.929 315.137 449.993C311.102 438.453 317.569 427.147 322.484 416.899C324.272 413.151 325.801 409.327 327.297 405.454C328.137 403.402 329.087 401.485 330.125 399.528C332.023 395.873 333.344 392.106 334.688 388.215C337.224 380.894 337.224 380.894 339.25 377.715C341.66 373.44 342.818 369.1 344.195 364.407C345.216 361.188 346.469 358.381 348.062 355.419C349.507 352.669 350.776 349.855 352.062 347.028C354.088 342.596 356.211 338.237 358.438 333.903C360.542 329.743 362.033 325.808 363.188 321.278C363.873 319.679 364.561 318.08 365.273 316.493C366.523 313.465 367.557 310.374 368.625 307.278C370.411 302.2 372.416 297.864 375.188 293.278C375.908 291.297 376.595 289.301 377.188 287.278C377.848 287.278 378.507 287.278 379.188 287.278C379.363 286.174 379.363 286.174 379.543 285.047C380.187 282.28 381.063 280.398 382.5 277.965C384.209 274.993 385.881 272.021 387.438 268.965C387.752 268.351 388.067 267.736 388.391 267.102C389.263 265.262 389.263 265.262 389.672 263.11C389.842 262.505 390.012 261.901 390.188 261.278C390.848 260.948 391.507 260.618 392.188 260.278C392.815 258.719 393.364 257.129 393.875 255.528C395.869 249.756 398.587 244.62 401.602 239.321C403.148 236.354 404.222 233.475 405.188 230.278C405.848 230.278 406.507 230.278 407.188 230.278C408.712 227.337 409.97 224.357 411.188 221.278C412.521 217.945 413.854 214.611 415.188 211.278C415.848 211.278 416.507 211.278 417.188 211.278C417.848 208.968 418.507 206.658 419.188 204.278C419.848 204.278 420.507 204.278 421.188 204.278C421.518 202.628 421.847 200.978 422.188 199.278C422.848 199.278 423.507 199.278 424.188 199.278C424.229 198.494 424.27 197.71 424.312 196.903C425.348 192.612 427.235 189.643 429.57 185.934C431.142 183.353 432.494 180.746 433.812 178.028C435.667 174.217 437.816 170.794 440.188 167.278C441.294 164.887 441.294 164.887 442.188 162.278C442.435 161.646 442.683 161.015 442.938 160.364C444.368 156.69 445.576 153.193 446.188 149.278C446.848 149.278 447.507 149.278 448.188 149.278C448.848 146.968 449.507 144.658 450.188 142.278C450.848 142.278 451.507 142.278 452.188 142.278C452.27 141.639 452.352 140.999 452.438 140.34C453.295 136.838 454.695 133.836 456.199 130.571C457.512 127.525 458.368 124.489 459.188 121.278C459.848 121.278 460.507 121.278 461.188 121.278C461.146 120.329 461.105 119.38 461.062 118.403C461.188 115.278 461.188 115.278 463.188 113.278C465.996 106.297 467.856 98.9888 469.574 91.6763C470.188 89.2779 470.188 89.2779 471.188 87.2779C471.419 84.7317 471.606 82.2039 471.75 79.6529C471.793 78.9465 471.836 78.2401 471.881 77.5123C471.987 75.7677 472.088 74.0228 472.188 72.2779C471.197 71.9479 470.207 71.6179 469.188 71.2779C468.857 70.6179 468.528 69.9579 468.188 69.2779C458.85 66.4687 448.994 72.9773 440.972 77.2867C436.969 79.5101 433.09 81.9284 429.219 84.3716C426.489 86.0885 423.727 87.722 420.938 89.3404C414.217 93.3749 408.319 98.2982 402.383 103.387C401.824 103.867 401.264 104.346 400.688 104.84C399.849 105.56 399.849 105.56 398.994 106.294C395.276 109.45 391.453 112.195 387.324 114.797C383.951 117.134 381.018 119.93 378.035 122.739C376.188 124.278 376.188 124.278 374.188 124.278C373.857 125.268 373.528 126.258 373.188 127.278C369.164 131.419 364.512 134.82 359.777 138.094C357.338 139.911 355.306 142.103 353.188 144.278C351.521 145.611 349.854 146.945 348.188 148.278C344.149 152.098 340.561 156.261 336.957 160.485C336.373 161.077 335.789 161.668 335.188 162.278C334.527 162.278 333.868 162.278 333.188 162.278C333.188 162.938 333.188 163.598 333.188 164.278C332.527 164.278 331.868 164.278 331.188 164.278C331.188 164.938 331.188 165.598 331.188 166.278C329.812 167.903 329.812 167.903 328.188 169.278C327.527 169.278 326.868 169.278 326.188 169.278C325.961 169.835 325.734 170.392 325.5 170.965C323.231 174.962 320.569 177.818 316.188 179.278C315.472 180.586 314.811 181.924 314.188 183.278C313.229 184.56 312.228 185.811 311.188 187.028C310.672 187.641 310.156 188.255 309.625 188.887C308.188 190.278 308.188 190.278 306.188 190.278C305.857 191.268 305.528 192.258 305.188 193.278C303.544 194.968 301.873 196.63 300.188 198.278C298.607 200.141 297.055 202.022 295.52 203.922C295.08 204.37 294.64 204.817 294.188 205.278C293.527 205.278 292.868 205.278 292.188 205.278C292.188 206.268 292.188 207.258 292.188 208.278C290.578 209.891 290.578 209.891 288.438 211.59C285.776 213.8 283.64 215.772 281.812 218.715C281.276 219.561 280.74 220.407 280.188 221.278C279.527 221.278 278.868 221.278 278.188 221.278C277.857 222.268 277.528 223.258 277.188 224.278C276.527 224.278 275.868 224.278 275.188 224.278C275.084 224.876 274.981 225.474 274.875 226.09C274.089 228.59 273.218 229.653 271.188 231.278C270.527 231.278 269.868 231.278 269.188 231.278C268.878 231.897 268.569 232.515 268.25 233.153C267.562 234.528 266.875 235.903 266.188 237.278C265.527 237.278 264.868 237.278 264.188 237.278C263.899 237.876 263.61 238.474 263.312 239.09C262.188 241.278 262.188 241.278 260.188 244.278C259.527 244.278 258.868 244.278 258.188 244.278C258.188 244.938 258.188 245.598 258.188 246.278C256.543 247.966 254.874 249.631 253.188 251.278C252.527 252.268 251.868 253.258 251.188 254.278C250.527 254.278 249.868 254.278 249.188 254.278C249.188 254.938 249.188 255.598 249.188 256.278C248.527 256.278 247.868 256.278 247.188 256.278C246.816 257.454 246.816 257.454 246.438 258.653C244.978 261.717 244.137 261.895 241.188 263.278C240.919 263.818 240.651 264.358 240.375 264.915C238.703 268.242 236.449 271.088 234.188 274.028C233.736 274.63 233.285 275.232 232.82 275.852C231.659 277.367 230.428 278.828 229.188 280.278C228.527 280.278 227.868 280.278 227.188 280.278C227.095 280.864 227.002 281.451 226.906 282.055C226.023 284.787 224.792 285.913 222.688 287.84C220.219 290.112 219.273 291.021 218.188 294.278C216.544 295.967 214.873 297.63 213.188 299.278C210.39 302.37 207.827 305.403 206.188 309.278C205.527 309.278 204.868 309.278 204.188 309.278C203.857 310.598 203.528 311.918 203.188 313.278C202.527 313.278 201.868 313.278 201.188 313.278C200.971 313.966 200.754 314.655 200.531 315.364C198.803 319.112 196.404 321.828 193.688 324.903C189.733 329.428 189.733 329.428 186.188 334.278C185.527 334.278 184.868 334.278 184.188 334.278C184.064 334.876 183.94 335.474 183.812 336.09C183.188 338.278 183.188 338.278 181.188 341.278C180.527 341.278 179.868 341.278 179.188 341.278C178.857 342.928 178.528 344.578 178.188 346.278C177.527 346.278 176.868 346.278 176.188 346.278C174.981 348.61 174.022 350.774 173.188 353.278C171.521 354.945 169.854 356.611 168.188 358.278C167.857 359.268 167.528 360.258 167.188 361.278C166.527 361.278 165.868 361.278 165.188 361.278C164.834 362.096 164.834 362.096 164.473 362.93C162.274 366.947 159.135 370.239 156.184 373.719C154.034 376.18 154.034 376.18 153.188 379.278C152.527 379.608 151.868 379.938 151.188 380.278C150.2 381.99 149.216 383.705 148.266 385.438C146.813 387.917 144.994 390.049 143.188 392.278C142.479 393.589 141.793 394.916 141.188 396.278C140.527 396.278 139.868 396.278 139.188 396.278C139.188 397.268 139.188 398.258 139.188 399.278C138.527 399.608 137.868 399.938 137.188 400.278C136.857 401.268 136.528 402.258 136.188 403.278C135.527 403.278 134.868 403.278 134.188 403.278C133.899 403.855 133.61 404.433 133.312 405.028C132.271 407.111 131.229 409.195 130.188 411.278C129.527 411.278 128.868 411.278 128.188 411.278C127.857 412.598 127.528 413.918 127.188 415.278C126.527 415.278 125.868 415.278 125.188 415.278C124.919 416.041 124.651 416.804 124.375 417.59C123.221 420.201 122.201 421.352 120.188 423.278C119.857 424.268 119.528 425.258 119.188 426.278C118.527 426.608 117.868 426.938 117.188 427.278C116.857 428.268 116.528 429.258 116.188 430.278C114.872 431.629 113.537 432.961 112.188 434.278C111.008 435.794 109.865 437.339 108.75 438.903C108.055 439.861 107.36 440.818 106.645 441.805C104.78 444.411 102.985 447.059 101.199 449.719C94.882 458.993 89.4732 466.223 79.1875 471.278C78.4888 471.65 77.7902 472.023 77.0703 472.407C71.9739 474.618 66.5965 474.573 61.125 474.653C60.3688 474.667 59.6126 474.681 58.8335 474.696C50.229 474.621 43.0234 471.412 36.1875 466.278C32.1341 462.011 30.2946 458.421 30 452.528C30.1875 449.278 30.1875 449.278 31.1875 448.278C31.6854 446.128 32.0858 443.966 32.4922 441.797C33.3469 438.7 34.6974 436.126 36.1875 433.278C36.8252 431.976 37.4591 430.673 38.0898 429.368C38.7681 427.984 39.4465 426.599 40.125 425.215C40.4595 424.521 40.794 423.827 41.1387 423.112C43.122 419.088 45.2491 415.708 48.1875 412.278C50.3133 409.047 51.8806 405.763 53.3594 402.192C54.821 398.814 56.5188 395.558 58.1875 392.278C58.8475 392.278 59.5075 392.278 60.1875 392.278C60.2906 391.597 60.3937 390.917 60.5 390.215C61.6526 385.291 63.7579 380.929 66.3125 376.59C67.8203 373.927 68.5222 372.161 69.1875 369.278C69.8475 368.948 70.5075 368.618 71.1875 368.278C71.8631 366.615 72.5268 364.947 73.1875 363.278C74.0064 361.791 74.8412 360.312 75.6875 358.84C77.6499 355.393 78.96 352.055 80.1875 348.278C80.8475 347.948 81.5075 347.618 82.1875 347.278C82.9011 345.631 83.5606 343.96 84.1875 342.278C86.8139 336.641 89.7081 331.437 93.1875 326.278C93.5175 325.432 93.8475 324.587 94.1875 323.715C95.1875 321.278 95.1875 321.278 97.0625 319.028C99.8622 315.405 101.46 311.494 103.188 307.278C103.848 307.278 104.507 307.278 105.188 307.278C105.27 306.742 105.352 306.205 105.438 305.653C106.449 302.449 108.316 300.057 110.188 297.278C110.498 296.494 110.809 295.71 111.129 294.903C112.245 292.134 113.619 289.752 115.188 287.215C116.993 284.286 118.697 281.38 120.188 278.278C120.848 278.278 121.507 278.278 122.188 278.278C122.456 277.556 122.724 276.834 123 276.09C124.188 273.278 124.188 273.278 125.75 270.715C127.059 268.496 127.723 266.787 128.188 264.278C128.848 264.278 129.507 264.278 130.188 264.278C130.456 263.568 130.724 262.857 131 262.126C132.222 259.195 133.644 256.489 135.188 253.715C136.918 250.597 138.62 247.482 140.188 244.278C140.848 244.278 141.507 244.278 142.188 244.278C142.311 243.556 142.435 242.834 142.562 242.09C143.184 239.296 143.966 236.865 145.188 234.278C145.848 233.948 146.507 233.618 147.188 233.278C148.75 230.965 150.044 229.042 150.562 226.278C151.188 224.278 151.188 224.278 153.5 222.028C156.27 219.194 157.573 216.802 159.211 213.266C160.188 211.278 160.188 211.278 162.375 208.028C163.988 205.58 164.57 204.055 165.188 201.278C165.848 200.948 166.507 200.618 167.188 200.278C167.902 198.631 168.562 196.96 169.188 195.278C171.986 189.244 175.157 183.482 178.637 177.817C179.725 176.034 180.788 174.236 181.832 172.426C182.362 171.511 182.892 170.596 183.438 169.653C183.917 168.815 184.397 167.977 184.891 167.114C185.319 166.508 185.747 165.902 186.188 165.278C186.848 165.278 187.507 165.278 188.188 165.278C188.188 163.958 188.188 162.638 188.188 161.278C188.848 161.278 189.507 161.278 190.188 161.278C190.311 160.535 190.435 159.793 190.562 159.028C191.142 156.476 191.925 154.551 193.188 152.278C193.848 152.278 194.507 152.278 195.188 152.278C195.456 151.391 195.724 150.504 196 149.59C197.113 146.487 198.289 143.967 200.188 141.278C200.848 141.278 201.507 141.278 202.188 141.278C202.261 140.445 202.334 139.612 202.41 138.754C203.378 134.426 205.265 131.361 207.625 127.653C208.437 126.349 209.249 125.044 210.059 123.739C210.434 123.138 210.809 122.537 211.195 121.918C212.303 120.086 213.286 118.219 214.188 116.278C214.848 116.278 215.507 116.278 216.188 116.278C216.283 115.758 216.378 115.239 216.477 114.704C217.439 111.421 218.996 108.491 220.562 105.465C222.43 101.837 224.234 98.2294 225.789 94.4537C227.188 91.2779 227.188 91.2779 229.188 89.2779C229.83 87.2092 229.83 87.2092 230.188 85.2779C230.848 85.2779 231.507 85.2779 232.188 85.2779C232.592 83.9805 232.592 83.9805 233.004 82.6568C234.162 79.3509 235.568 76.3499 237.125 73.2154C240.059 66.9073 242.816 60.2971 243.188 53.2779C241.078 48.7424 238.567 46.6745 234.188 44.2779C228.343 42.5075 223.146 41.9929 217.062 42.0904C215.904 42.0914 215.904 42.0914 214.723 42.0923C210.421 42.1253 206.435 42.5628 202.188 43.2779C199.879 43.417 197.573 43.4936 195.262 43.5684C187.237 43.8317 179.75 44.5382 171.926 46.4498C166.224 47.7128 160.457 48.4779 154.674 49.2755C153.847 49.3923 153.02 49.5091 152.168 49.6295C151.424 49.7308 150.681 49.8322 149.915 49.9366C148.164 50.1161 148.164 50.1161 147.188 51.2779C145.468 51.591 143.746 51.8989 142.021 52.1778C133.821 53.5157 126.751 55.7746 119.188 59.2779C112.561 62.159 106.026 64.7863 99.0508 66.6998C97.1923 67.1178 97.1923 67.1178 96.1875 68.2779C94.5213 68.3185 92.8536 68.3206 91.1875 68.2779C91.1875 68.9379 91.1875 69.5979 91.1875 70.2779C89.2075 70.2779 87.2275 70.2779 85.1875 70.2779C85.1875 70.9379 85.1875 71.5979 85.1875 72.2779C83.7064 72.7845 83.7064 72.7845 82.1953 73.3013C80.9009 73.7515 79.6067 74.2021 78.3125 74.6529C77.6615 74.8746 77.0105 75.0963 76.3398 75.3248C73.422 76.3475 71.4019 77.0635 69.1875 79.2779C67.1073 80.1889 64.9983 81.0349 62.875 81.8404C61.1792 82.492 61.1792 82.492 59.4492 83.1568C56.6796 84.1088 54.0694 84.7967 51.1875 85.2779C51.1875 85.9379 51.1875 86.5979 51.1875 87.2779C49.2075 87.2779 47.2275 87.2779 45.1875 87.2779C45.1875 87.9379 45.1875 88.5979 45.1875 89.2779C35.0711 93.947 25.9142 93.1186 15.5754 89.3978C13.7715 88.7116 11.9792 87.9954 10.1875 87.2779C9.22457 86.917 8.26164 86.556 7.26953 86.1841C4.81411 85.0911 3.07147 84.1952 1.1875 82.2779C0.00624251 78.8789 0.0134588 75.8429 0.1875 72.2779C0.125625 71.1023 0.06375 69.9266 0 68.7154C2.9624 60.14 12.392 55.0864 20.1875 51.2779C21.3309 50.7004 22.4743 50.1229 23.6523 49.5279C27.1552 47.7599 30.6706 46.0178 34.1875 44.2779C35.2355 43.7133 36.2835 43.1487 37.3633 42.567C40.1875 41.2779 40.1875 41.2779 44.1875 41.2779C44.1875 40.6179 44.1875 39.9579 44.1875 39.2779C47.0935 38.0212 48.9835 37.2779 52.1875 37.2779C52.1875 36.6179 52.1875 35.9579 52.1875 35.2779C52.9725 35.0239 53.7576 34.77 54.5664 34.5084C55.617 34.1642 56.6676 33.82 57.75 33.4654C58.7825 33.1289 59.8151 32.7925 60.8789 32.4459C64.2312 31.3083 64.2312 31.3083 67.5625 29.7974C71.5287 28.1349 75.4897 26.9318 79.625 25.7779C84.5818 24.3873 89.4047 22.8601 94.2112 21.0142C97.4936 19.7913 100.83 18.7712 104.188 17.7779C104.917 17.5621 105.646 17.3464 106.397 17.1241C112.078 15.4931 117.77 14.3104 123.59 13.3013C127.342 12.6461 130.97 11.8474 134.625 10.7779C140.185 9.16267 145.821 8.21461 151.527 7.27985C155.475 6.67377 155.475 6.67377 159.188 5.27789C161.134 5.00989 163.088 4.79002 165.043 4.5943C166.223 4.47119 167.403 4.34809 168.619 4.22125C171.103 3.96935 173.588 3.71932 176.072 3.47125C177.259 3.34686 178.445 3.22246 179.668 3.0943C180.75 2.98545 181.831 2.87661 182.946 2.76447C186.233 2.35374 186.233 2.35374 189.476 1.26366C193.106 0.299618 196.069 0.0244549 199.81 0.019104ZM2008.56 142.528C2005.85 144.273 2003.16 145.832 2000.25 147.215C1995.65 149.454 1991.17 152.055 1987.19 155.278C1987.19 155.938 1987.19 156.598 1987.19 157.278C1986.47 157.505 1985.74 157.732 1985 157.965C1981.61 159.547 1979.76 161.577 1977.19 164.278C1976.09 165.186 1974.99 166.082 1973.88 166.965C1972.99 167.729 1972.1 168.492 1971.19 169.278C1971.19 169.938 1971.19 170.598 1971.19 171.278C1970.32 171.618 1970.32 171.618 1969.44 171.965C1966.59 173.626 1965.19 175.67 1963.19 178.278C1960.91 180.668 1958.76 182.873 1956.06 184.778C1953.7 186.664 1952.68 188.653 1951.19 191.278C1949.87 193.078 1948.53 194.86 1947.18 196.629C1945.93 198.386 1945.93 198.386 1946.19 201.278C1945.2 201.278 1944.21 201.278 1943.19 201.278C1942.61 202.35 1942.03 203.423 1941.44 204.528C1939.75 207.655 1937.7 209.779 1935.19 212.278C1933.66 214.19 1932.16 216.13 1930.69 218.09C1929.93 219.087 1929.18 220.083 1928.41 221.11C1926.49 223.844 1924.85 226.617 1923.23 229.531C1921.12 233.058 1918.47 236.184 1915.9 239.383C1912.9 243.178 1910.52 247.04 1908.19 251.278C1907.19 252.948 1906.19 254.615 1905.19 256.278C1904.73 257.045 1904.27 257.812 1903.79 258.602C1903.33 259.382 1902.86 260.162 1902.38 260.965C1901.86 261.829 1901.34 262.693 1900.81 263.583C1899.72 265.389 1898.62 267.186 1897.5 268.973C1896.7 270.269 1896.7 270.269 1895.88 271.59C1895.38 272.37 1894.89 273.15 1894.39 273.954C1893.12 276.409 1892.6 278.557 1892.19 281.278C1891.2 281.608 1890.21 281.938 1889.19 282.278C1887.76 284.493 1887.76 284.493 1886.56 287.153C1886.14 288.037 1885.71 288.921 1885.27 289.833C1884.11 292.337 1884.11 292.337 1883.19 295.278C1882.53 295.278 1881.87 295.278 1881.19 295.278C1880.86 296.268 1880.53 297.258 1880.19 298.278C1879.53 298.608 1878.87 298.938 1878.19 299.278C1878.19 300.268 1878.19 301.258 1878.19 302.278C1877.53 302.608 1876.87 302.938 1876.19 303.278C1877.18 303.278 1878.17 303.278 1879.19 303.278C1879.19 302.618 1879.19 301.958 1879.19 301.278C1879.89 301.05 1880.59 300.822 1881.31 300.586C1884.76 299.015 1887.37 296.82 1890.19 294.34C1893.04 291.856 1895.79 289.512 1899.06 287.586C1899.76 287.155 1900.46 286.723 1901.19 286.278C1901.19 285.618 1901.19 284.958 1901.19 284.278C1901.83 284.01 1902.47 283.742 1903.12 283.465C1905.52 282.391 1905.52 282.391 1906.19 279.278C1908.01 278.254 1908.01 278.254 1910.19 277.278C1915.47 273.86 1919.57 269.926 1923.58 265.106C1925.56 262.858 1927.84 261.126 1930.19 259.278C1930.19 258.618 1930.19 257.958 1930.19 257.278C1930.85 257.278 1931.51 257.278 1932.19 257.278C1932.19 256.618 1932.19 255.958 1932.19 255.278C1932.77 255.02 1933.35 254.762 1933.95 254.497C1936.37 253.18 1938 251.727 1939.94 249.778C1940.55 249.169 1941.16 248.561 1941.8 247.934C1943.4 246.383 1943.4 246.383 1943.19 244.278C1943.85 244.278 1944.51 244.278 1945.19 244.278C1946.52 242.766 1947.78 241.191 1949 239.59C1951.88 235.899 1954.78 232.501 1958.19 229.278C1959.05 228.412 1959.92 227.545 1960.81 226.653C1962.19 225.278 1963.58 223.916 1965 222.59C1966.41 221.326 1966.41 221.326 1966.19 219.278C1966.79 219.051 1967.38 218.824 1968 218.59C1970.75 216.939 1971.63 215.039 1973.19 212.278C1973.85 211.948 1974.51 211.618 1975.19 211.278C1975.19 210.618 1975.19 209.958 1975.19 209.278C1975.85 209.278 1976.51 209.278 1977.19 209.278C1978.83 207.396 1980.33 205.525 1981.81 203.528C1982.23 202.989 1982.65 202.45 1983.09 201.895C1985.52 198.649 1986.19 197.475 1986.19 193.278C1987.18 192.948 1988.17 192.618 1989.19 192.278C1991.19 189.743 1991.19 189.743 1993.12 186.653C1993.83 185.566 1994.53 184.48 1995.26 183.36C1997.34 180.042 1999.3 176.706 2001.19 173.278C2001.68 172.474 2002.18 171.669 2002.69 170.84C2007.95 161.848 2014.19 150.867 2014.19 140.278C2011.63 140.278 2010.69 141.122 2008.56 142.528ZM1875.19 303.278C1876.19 305.278 1876.19 305.278 1876.19 305.278L1875.19 303.278ZM1001.19 351.278C998.791 353.943 998.791 353.943 998.188 357.278C997.197 357.608 996.207 357.938 995.188 358.278C993.826 360.259 992.492 362.259 991.188 364.278C990.197 364.773 990.197 364.773 989.188 365.278C988.445 366.67 988.445 366.67 987.688 368.09C985.64 371.859 982.977 374.985 980.188 378.215C976.397 382.653 973.344 386.839 971.188 392.278C970.854 393.103 970.52 393.928 970.176 394.778C969.483 396.508 968.801 398.243 968.129 399.981C967.188 402.278 967.188 402.278 965.562 405.153C963.753 409.267 963.239 413.333 962.617 417.766C962.188 420.278 962.188 420.278 961.188 421.278C960.778 424.877 960.994 426.892 962.625 430.153C965.9 432.869 967.623 432.656 971.738 432.554C975.732 432.104 979.111 430.671 982.75 429.028C983.453 428.728 984.156 428.427 984.881 428.118C989.144 426.274 993.306 424.257 997.441 422.143C999.641 421.053 1001.89 420.139 1004.19 419.278C1004.19 418.618 1004.19 417.958 1004.19 417.278C1005.36 416.969 1005.36 416.969 1006.56 416.653C1011.49 414.785 1015.72 412.039 1020.19 409.278C1022.51 407.922 1024.85 406.602 1027.19 405.278C1028.5 404.528 1029.81 403.778 1031.12 403.028C1032.14 402.45 1033.15 401.873 1034.19 401.278C1034.19 400.618 1034.19 399.958 1034.19 399.278C1035.18 399.278 1036.17 399.278 1037.19 399.278C1037.19 398.618 1037.19 397.958 1037.19 397.278C1037.91 397.015 1038.63 396.751 1039.38 396.48C1042.24 395.254 1044.57 393.815 1047.14 392.047C1048.07 391.409 1049 390.77 1049.96 390.112C1050.92 389.445 1051.88 388.778 1052.88 388.09C1053.82 387.443 1054.76 386.795 1055.73 386.128C1057.62 384.83 1059.5 383.528 1061.38 382.222C1063.29 380.902 1065.2 379.595 1067.12 378.299C1068.04 377.677 1068.95 377.055 1069.89 376.415C1070.72 375.859 1071.55 375.303 1072.4 374.73C1072.99 374.251 1073.58 373.772 1074.19 373.278C1074.19 372.618 1074.19 371.958 1074.19 371.278C1074.85 371.278 1075.51 371.278 1076.19 371.278C1076.19 370.618 1076.19 369.958 1076.19 369.278C1076.73 369.204 1077.27 369.131 1077.83 369.055C1081.13 367.969 1083.27 366.045 1085.94 363.84C1086.92 363.037 1087.91 362.234 1088.92 361.407C1090.04 360.353 1090.04 360.353 1091.19 359.278C1091.19 358.618 1091.19 357.958 1091.19 357.278C1092.18 356.948 1093.17 356.618 1094.19 356.278C1094.19 355.618 1094.19 354.958 1094.19 354.278C1094.83 354.01 1095.47 353.742 1096.12 353.465C1098.52 352.391 1098.52 352.391 1099.19 349.278C1100.18 348.948 1101.17 348.618 1102.19 348.278C1103.77 346.794 1103.77 346.794 1105.31 344.903C1106.22 343.837 1106.22 343.837 1107.14 342.751C1107.81 341.935 1108.49 341.119 1109.19 340.278C1110 339.307 1110.81 338.337 1111.64 337.336C1115.81 333.194 1115.81 333.194 1118.19 328.278C1074.72 318.149 1034.28 317.846 1001.19 351.278ZM1543.19 413.278C1543.19 416.278 1543.19 416.278 1543.19 416.278V413.278ZM1480.81 546.59C1479.67 547.205 1478.53 547.82 1477.35 548.454C1474.78 549.936 1472.54 551.484 1470.19 553.278C1468.78 554.072 1467.37 554.843 1465.94 555.59C1461.34 558.105 1457.29 561.039 1453.19 564.278C1451.75 565.404 1450.31 566.529 1448.88 567.653C1447.76 568.527 1447.76 568.527 1446.62 569.419C1443.07 572.133 1439.42 574.71 1435.77 577.286C1430.72 581.184 1426.8 585.82 1422.94 590.84C1422.49 591.404 1422.05 591.968 1421.59 592.549C1419.37 595.426 1417.89 597.713 1417.19 601.278C1416.2 601.773 1416.2 601.773 1415.19 602.278C1414.17 606.616 1414.05 610.835 1414.06 615.278C1414.06 616.454 1414.06 617.629 1414.05 618.84C1414.18 622.075 1414.58 625.103 1415.19 628.278C1418.63 629.428 1419.13 629.303 1422.75 627.778C1430.16 623.759 1436.99 620.01 1442.19 613.278C1444.23 611.419 1446.34 609.678 1448.48 607.926C1450.44 606.287 1450.44 606.287 1451.19 603.278C1452.85 601.611 1454.52 599.945 1456.19 598.278C1457.21 596.625 1458.21 594.96 1459.19 593.278C1460.17 592.258 1461.17 591.255 1462.19 590.278C1464.46 587.463 1464.46 587.463 1464.19 584.278C1465.18 583.948 1466.17 583.618 1467.19 583.278C1467.84 581.424 1468.49 579.569 1469.12 577.708C1470.4 574.801 1472.08 572.553 1474 570.028C1481.07 560.957 1481.07 560.957 1484.19 550.278C1484.85 550.278 1485.51 550.278 1486.19 550.278C1488.5 547.057 1488.5 547.057 1489.19 543.278C1485.95 543.278 1483.62 545.066 1480.81 546.59Z" fill="#000000"/>
<path d="M2254.88 167.966C2255.59 167.948 2256.3 167.93 2257.04 167.912C2262.83 167.92 2267.61 168.982 2272.08 172.962C2272.53 173.54 2272.98 174.119 2273.44 174.716C2274.13 175.58 2274.13 175.58 2274.83 176.462C2275.28 177.061 2275.73 177.66 2276.19 178.278C2276.73 178.911 2277.27 179.544 2277.82 180.196C2280.5 184.279 2279.99 188.61 2279.19 193.278C2277.24 198.189 2274.79 202.687 2272.19 207.278C2271.76 208.093 2271.33 208.907 2270.89 209.747C2266.02 218.953 2260.75 228.116 2252.19 234.278C2251.53 234.278 2250.87 234.278 2250.19 234.278C2249.91 235.144 2249.91 235.144 2249.63 236.028C2247.92 238.69 2246.02 239.684 2243.26 241.134C2240.1 242.879 2237.17 244.957 2234.2 247.009C2229.76 249.805 2225.27 249.869 2220.19 249.278C2215.38 247.753 2211.68 245.911 2208.19 242.278C2207.36 241.804 2206.54 241.329 2205.69 240.841C2202.39 238.781 2200.57 236.797 2199.61 232.981C2199.06 227.222 2199.45 222.803 2201.19 217.278C2201.85 217.278 2202.51 217.278 2203.19 217.278C2203.11 216.597 2203.02 215.917 2202.94 215.216C2203.22 211.908 2204.39 209.898 2206.11 207.098C2209.05 202.14 2210.72 196.809 2212.19 191.278C2212.85 191.278 2213.51 191.278 2214.19 191.278C2214.52 189.628 2214.85 187.978 2215.19 186.278C2215.85 186.278 2216.51 186.278 2217.19 186.278C2217.25 185.556 2217.31 184.834 2217.38 184.091C2218.45 180.37 2220.31 178.819 2223.19 176.278C2224.05 175.474 2224.05 175.474 2224.94 174.653C2228.47 172.495 2232.22 171.399 2236.19 170.278C2237.28 169.965 2237.28 169.965 2238.4 169.645C2243.87 168.32 2249.27 168.045 2254.88 167.966Z" fill="#000000"/>
<path d="M1487.19 460.278C1489.31 461.216 1489.31 461.216 1491.19 462.278C1490.2 463.763 1490.2 463.763 1489.19 465.278C1487.54 464.948 1485.89 464.618 1484.19 464.278C1484.52 463.288 1484.85 462.298 1485.19 461.278C1485.85 460.948 1486.51 460.618 1487.19 460.278Z" fill="#000000"/>
</svg>